solid stl file generated from AC3D
 facet normal 0.500000 -0.000025 0.866026
  outer loop
   vertex 157.363937 243.629471 30.903805
   vertex 153.899643 235.628967 32.903687
   vertex 157.363739 235.628967 30.903690
  endloop
 endfacet
 facet normal 0.499957 0.000000 0.866050
  outer loop
   vertex 153.899643 235.628967 32.903687
   vertex 157.363937 243.629471 30.903805
   vertex 153.899643 259.628937 32.903687
  endloop
 endfacet
 facet normal 1.000000 -0.000000 -0.000001
  outer loop
   vertex 190.863678 251.248871 15.338760
   vertex 190.863693 256.628418 30.959805
   vertex 190.863693 251.248871 30.959812
  endloop
 endfacet
 facet normal 0.500127 0.000049 0.865952
  outer loop
   vertex 153.899643 259.628937 32.903687
   vertex 157.363937 243.629471 30.903805
   vertex 157.363556 251.628433 30.903572
  endloop
 endfacet
 facet normal 0.500000 -0.000024 0.866025
  outer loop
   vertex 153.899643 259.628937 32.903687
   vertex 157.363556 251.628433 30.903572
   vertex 157.363754 259.628937 30.903681
  endloop
 endfacet
 facet normal 0.000000 1.000000 0.000000
  outer loop
   vertex 148.363739 259.628937 15.315236
   vertex 153.899643 259.628937 32.903687
   vertex 157.363754 259.628937 30.903681
  endloop
 endfacet
 facet normal 0.000000 1.000000 0.000000
  outer loop
   vertex 153.899643 259.628937 32.903687
   vertex 148.363739 259.628937 15.315236
   vertex 144.899658 259.628937 17.315224
  endloop
 endfacet
 facet normal 0.000000 -1.000000 0.000000
  outer loop
   vertex 153.899643 235.628967 32.903687
   vertex 148.363739 235.628967 15.315239
   vertex 157.363739 235.628967 30.903690
  endloop
 endfacet
 facet normal 0.000000 -1.000000 0.000000
  outer loop
   vertex 148.363739 235.628967 15.315239
   vertex 153.899643 235.628967 32.903687
   vertex 144.899658 235.628967 17.315228
  endloop
 endfacet
 facet normal -0.500000 -0.000000 -0.866025
  outer loop
   vertex 144.899658 259.628937 17.315224
   vertex 148.363739 235.628967 15.315239
   vertex 144.899658 235.628967 17.315228
  endloop
 endfacet
 facet normal -0.499669 0.000063 -0.866216
  outer loop
   vertex 148.363739 235.628967 15.315239
   vertex 144.899658 259.628937 17.315224
   vertex 148.363998 243.628433 15.315676
  endloop
 endfacet
 facet normal -0.500085 -0.000057 -0.865976
  outer loop
   vertex 148.363998 243.628433 15.315676
   vertex 144.899658 259.628937 17.315224
   vertex 148.363770 251.627396 15.315286
  endloop
 endfacet
 facet normal -0.500000 -0.000007 -0.866025
  outer loop
   vertex 148.363770 251.627396 15.315286
   vertex 144.899658 259.628937 17.315224
   vertex 148.363739 259.628937 15.315236
  endloop
 endfacet
 facet normal -0.469013 -0.271392 -0.840460
  outer loop
   vertex 152.607254 256.474915 30.665199
   vertex 156.156357 256.079163 28.812437
   vertex 152.723160 255.652863 30.865967
  endloop
 endfacet
 facet normal 0.000000 1.000000 0.000000
  outer loop
   vertex 187.751907 244.063965 26.660357
   vertex 188.424377 244.063965 19.170088
   vertex 187.363708 244.063965 19.609442
  endloop
 endfacet
 facet normal 0.000000 1.000000 0.000000
  outer loop
   vertex 187.822235 256.628418 29.537434
   vertex 190.863693 256.628418 30.959805
   vertex 188.697830 256.628418 28.794872
  endloop
 endfacet
 facet normal 0.000000 -1.000000 0.000000
  outer loop
   vertex 187.467331 251.248871 19.605717
   vertex 188.049316 251.248871 26.775116
   vertex 186.905121 251.248871 26.681065
  endloop
 endfacet
 facet normal -0.000000 0.000003 -1.000000
  outer loop
   vertex 190.863678 244.063965 15.338760
   vertex 182.694382 243.715637 15.338760
   vertex 183.678787 244.063965 15.338761
  endloop
 endfacet
 facet normal -0.441834 -0.511246 -0.737164
  outer loop
   vertex 156.156357 256.079163 28.812437
   vertex 152.607254 256.474915 30.665199
   vertex 155.938004 256.813171 28.434254
  endloop
 endfacet
 facet normal 1.000000 0.000000 -0.000001
  outer loop
   vertex 190.863693 238.628448 30.959812
   vertex 190.863678 244.063965 15.338760
   vertex 190.863693 244.063965 30.959812
  endloop
 endfacet
 facet normal -0.274902 -0.800967 -0.531865
  outer loop
   vertex 155.938004 256.813171 28.434254
   vertex 152.607254 256.474915 30.665199
   vertex 152.101288 257.230469 29.788881
  endloop
 endfacet
 facet normal 0.000000 1.000000 0.000000
  outer loop
   vertex 185.863693 244.063965 28.109238
   vertex 186.064636 244.063965 18.859455
   vertex 185.914795 244.063965 17.721228
  endloop
 endfacet
 facet normal 0.000000 1.000000 0.000000
  outer loop
   vertex 188.662735 244.063965 17.359449
   vertex 190.863678 244.063965 15.338760
   vertex 188.113708 244.063965 16.810398
  endloop
 endfacet
 facet normal 0.000000 1.000000 0.000000
  outer loop
   vertex 188.662735 244.063965 27.359236
   vertex 188.424377 244.063965 19.170088
   vertex 187.751907 244.063965 26.660357
  endloop
 endfacet
 facet normal -0.000001 0.000002 -1.000000
  outer loop
   vertex 190.863693 256.628479 15.338764
   vertex 182.074020 251.622894 15.338758
   vertex 172.863693 251.626587 15.338763
  endloop
 endfacet
 facet normal -0.170663 -0.967759 -0.185247
  outer loop
   vertex 152.101288 257.230469 29.788881
   vertex 155.138367 257.219299 27.049263
   vertex 155.938004 256.813171 28.434254
  endloop
 endfacet
 facet normal 0.006539 -0.999915 0.011325
  outer loop
   vertex 155.138367 257.219299 27.049263
   vertex 152.101288 257.230469 29.788881
   vertex 151.674286 257.219299 29.049265
  endloop
 endfacet
 facet normal 0.866032 0.000025 -0.499989
  outer loop
   vertex 157.363556 251.628433 30.903572
   vertex 150.363770 253.978943 18.779339
   vertex 151.078201 254.803955 20.016850
  endloop
 endfacet
 facet normal 0.000001 -0.000002 1.000000
  outer loop
   vertex 172.863693 251.627563 30.959810
   vertex 190.863693 256.628418 30.959805
   vertex 172.863693 252.446304 30.959812
  endloop
 endfacet
 facet normal 0.309553 -0.785310 0.536158
  outer loop
   vertex 151.674286 257.219299 29.049265
   vertex 154.642532 256.437469 26.190390
   vertex 155.138367 257.219299 27.049263
  endloop
 endfacet
 facet normal 0.309550 -0.785313 0.536155
  outer loop
   vertex 154.642532 256.437469 26.190390
   vertex 151.674286 257.219299 29.049265
   vertex 151.178406 256.437469 28.190407
  endloop
 endfacet
 facet normal 0.000000 0.000000 1.000000
  outer loop
   vertex 182.694382 243.715637 30.959812
   vertex 190.863693 244.063965 30.959812
   vertex 183.678802 244.063965 30.959812
  endloop
 endfacet
 facet normal 0.866030 -0.000056 -0.499991
  outer loop
   vertex 150.363770 257.278961 18.779339
   vertex 157.363754 259.628937 30.903681
   vertex 150.776245 257.057892 19.493809
  endloop
 endfacet
 facet normal 0.000000 0.000001 1.000000
  outer loop
   vertex 172.863693 252.446304 30.959812
   vertex 190.863693 256.628418 30.959805
   vertex 177.045822 256.628418 30.959806
  endloop
 endfacet
 facet normal -0.965921 0.000006 0.258837
  outer loop
   vertex 188.662735 244.063965 17.359449
   vertex 188.863678 238.628448 18.109455
   vertex 188.863708 244.063965 18.109436
  endloop
 endfacet
 facet normal -0.226987 -0.973898 0.000000
  outer loop
   vertex 182.074036 251.622894 30.959810
   vertex 182.074020 251.622894 15.338758
   vertex 183.678802 251.248871 30.959812
  endloop
 endfacet
 facet normal 0.866023 0.000023 -0.500005
  outer loop
   vertex 154.565582 239.199341 26.057110
   vertex 151.078201 238.803955 20.016850
   vertex 154.647980 240.451401 26.199883
  endloop
 endfacet
 facet normal 0.496536 -0.117523 0.860024
  outer loop
   vertex 154.642532 256.437469 26.190390
   vertex 151.178406 256.437469 28.190407
   vertex 154.568298 255.183350 26.061872
  endloop
 endfacet
 facet normal 0.000000 1.000000 0.000000
  outer loop
   vertex 190.863693 256.628418 30.959805
   vertex 188.782272 256.628418 17.621870
   vertex 188.791901 256.628418 27.650669
  endloop
 endfacet
 facet normal -0.000000 -1.000000 0.000112
  outer loop
   vertex 172.863708 243.630188 30.959814
   vertex 148.363998 243.628433 15.315676
   vertex 172.863693 243.628433 15.338763
  endloop
 endfacet
 facet normal 0.535192 0.013094 0.844629
  outer loop
   vertex 151.189224 254.787613 28.209129
   vertex 154.568298 255.183350 26.061872
   vertex 151.178406 256.437469 28.190407
  endloop
 endfacet
 facet normal -0.382104 0.054585 -0.922506
  outer loop
   vertex 188.662735 238.628448 28.859238
   vertex 187.751907 244.063965 29.558128
   vertex 188.113693 244.063965 29.408276
  endloop
 endfacet
 facet normal 0.866027 -0.000033 -0.499998
  outer loop
   vertex 157.363556 251.628433 30.903572
   vertex 155.159256 254.032013 27.085432
   vertex 155.953293 254.479904 28.460722
  endloop
 endfacet
 facet normal 0.312939 0.715703 0.624371
  outer loop
   vertex 154.568298 255.183350 26.061872
   vertex 151.495132 254.191620 28.738962
   vertex 155.159256 254.032013 27.085432
  endloop
 endfacet
 facet normal 0.312947 0.715694 0.624377
  outer loop
   vertex 151.495132 254.191620 28.738962
   vertex 154.568298 255.183350 26.061872
   vertex 151.189224 254.787613 28.209129
  endloop
 endfacet
 facet normal 0.544844 0.838538 0.000000
  outer loop
   vertex 180.626694 243.824509 30.959816
   vertex 178.890457 244.952637 15.338760
   vertex 178.890457 244.952637 30.959812
  endloop
 endfacet
 facet normal 0.135234 0.969136 0.206124
  outer loop
   vertex 151.909042 253.981384 29.455870
   vertex 155.159256 254.032013 27.085432
   vertex 151.495132 254.191620 28.738962
  endloop
 endfacet
 facet normal -0.171268 0.961637 -0.214294
  outer loop
   vertex 155.159256 254.032013 27.085432
   vertex 151.909042 253.981384 29.455870
   vertex 155.953293 254.479904 28.460722
  endloop
 endfacet
 facet normal 0.668950 -0.743308 0.000000
  outer loop
   vertex 178.509537 249.807816 15.338755
   vertex 180.048584 251.192902 30.959827
   vertex 178.509537 249.807816 30.959816
  endloop
 endfacet
 facet normal -0.382691 -0.000001 -0.923876
  outer loop
   vertex 188.424362 238.628448 19.170097
   vertex 187.363708 244.063965 19.609442
   vertex 188.424377 244.063965 19.170088
  endloop
 endfacet
 facet normal -0.171270 0.961634 -0.214304
  outer loop
   vertex 152.320068 254.213242 30.167780
   vertex 155.953293 254.479904 28.460722
   vertex 151.909042 253.981384 29.455870
  endloop
 endfacet
 facet normal 0.000000 -1.000000 0.000000
  outer loop
   vertex 188.495102 251.248871 19.094126
   vertex 188.791870 251.248871 27.650673
   vertex 188.049316 251.248871 26.775116
  endloop
 endfacet
 facet normal -0.707111 0.707103 0.000003
  outer loop
   vertex 172.863693 252.446304 15.338763
   vertex 177.045822 256.628418 30.959806
   vertex 177.045822 256.628479 15.338758
  endloop
 endfacet
 facet normal -0.000000 0.000000 -1.000000
  outer loop
   vertex 190.863678 238.628448 15.338760
   vertex 172.863693 242.810547 15.338763
   vertex 190.863678 244.063965 15.338760
  endloop
 endfacet
 facet normal 0.000000 1.000000 0.000000
  outer loop
   vertex 188.812576 244.063965 28.497461
   vertex 188.424377 244.063965 19.170088
   vertex 188.662735 244.063965 27.359236
  endloop
 endfacet
 facet normal -0.345948 0.697713 -0.627309
  outer loop
   vertex 152.618073 254.825043 30.683901
   vertex 155.953293 254.479904 28.460722
   vertex 152.320068 254.213242 30.167780
  endloop
 endfacet
 facet normal 0.866033 0.000019 -0.499987
  outer loop
   vertex 157.363739 235.628967 30.903690
   vertex 155.148956 238.032608 27.067532
   vertex 155.774963 238.197449 28.151852
  endloop
 endfacet
 facet normal 0.760122 -0.649550 -0.017296
  outer loop
   vertex 180.048584 251.192902 30.959827
   vertex 178.509537 249.807816 15.338755
   vertex 179.187912 250.601669 15.338757
  endloop
 endfacet
 facet normal 0.000000 0.000001 1.000000
  outer loop
   vertex 182.074036 251.622894 30.959810
   vertex 190.863693 256.628418 30.959805
   vertex 172.863693 251.627563 30.959810
  endloop
 endfacet
 facet normal -0.519867 0.245919 -0.818084
  outer loop
   vertex 152.723160 255.652863 30.865967
   vertex 155.953293 254.479904 28.460722
   vertex 152.618073 254.825043 30.683901
  endloop
 endfacet
 facet normal -0.519865 0.245925 -0.818084
  outer loop
   vertex 155.953293 254.479904 28.460722
   vertex 152.723160 255.652863 30.865967
   vertex 156.156357 256.079163 28.812437
  endloop
 endfacet
 facet normal 0.000000 -1.000000 0.000000
  outer loop
   vertex 188.424362 238.628448 19.170097
   vertex 188.113693 238.628448 26.810213
   vertex 186.975433 238.628448 26.660360
  endloop
 endfacet
 facet normal -0.333578 0.942722 0.000000
  outer loop
   vertex 182.694382 243.715637 15.338760
   vertex 183.678802 244.063965 30.959812
   vertex 183.678787 244.063965 15.338761
  endloop
 endfacet
 facet normal -0.865993 -0.000001 0.500057
  outer loop
   vertex 151.178406 256.437469 28.190407
   vertex 151.101471 240.053452 28.057129
   vertex 151.315018 240.793121 28.426949
  endloop
 endfacet
 facet normal 0.866286 0.000012 -0.499548
  outer loop
   vertex 151.178406 256.437469 28.190407
   vertex 151.315018 240.793121 28.426949
   vertex 151.189224 254.787613 28.209129
  endloop
 endfacet
 facet normal -0.707104 -0.707109 0.000000
  outer loop
   vertex 177.045822 238.628448 15.338758
   vertex 172.863693 242.810547 30.959810
   vertex 172.863693 242.810547 15.338763
  endloop
 endfacet
 facet normal 0.866025 -0.000024 -0.500001
  outer loop
   vertex 154.568298 255.183350 26.061872
   vertex 151.078217 256.453979 20.016834
   vertex 154.642532 256.437469 26.190390
  endloop
 endfacet
 facet normal 0.000000 -0.000003 -1.000000
  outer loop
   vertex 190.863678 244.063965 15.338760
   vertex 172.863693 242.810547 15.338763
   vertex 180.626694 243.824509 15.338760
  endloop
 endfacet
 facet normal -0.866020 -0.000002 0.500009
  outer loop
   vertex 151.189224 254.787613 28.209129
   vertex 151.315018 240.793121 28.426949
   vertex 151.495132 254.191620 28.738962
  endloop
 endfacet
 facet normal 0.000000 -1.000000 0.000000
  outer loop
   vertex 187.751907 238.628448 29.558128
   vertex 190.863693 238.628448 30.959812
   vertex 177.045822 238.628448 30.959827
  endloop
 endfacet
 facet normal -0.866024 -0.000002 0.500003
  outer loop
   vertex 151.495132 254.191620 28.738962
   vertex 151.315018 240.793121 28.426949
   vertex 151.909042 253.981384 29.455870
  endloop
 endfacet
 facet normal -0.866028 -0.000001 0.499996
  outer loop
   vertex 151.909042 253.981384 29.455870
   vertex 151.315018 240.793121 28.426949
   vertex 151.898376 241.276398 29.437366
  endloop
 endfacet
 facet normal 0.983210 -0.182479 0.000000
  outer loop
   vertex 178.509537 249.807816 30.959816
   vertex 177.950882 246.797745 15.338762
   vertex 178.509537 249.807816 15.338755
  endloop
 endfacet
 facet normal -0.866030 -0.000001 0.499991
  outer loop
   vertex 151.909042 253.981384 29.455870
   vertex 151.898376 241.276398 29.437366
   vertex 152.481735 240.793121 30.447796
  endloop
 endfacet
 facet normal -0.866023 0.000000 0.500004
  outer loop
   vertex 151.909042 253.981384 29.455870
   vertex 152.481735 240.793121 30.447796
   vertex 152.320068 254.213242 30.167780
  endloop
 endfacet
 facet normal 0.866025 -0.000005 -0.500000
  outer loop
   vertex 148.363739 235.628967 15.315239
   vertex 150.363754 237.978958 18.779345
   vertex 157.363739 235.628967 30.903690
  endloop
 endfacet
 facet normal 0.866012 -0.000012 -0.500024
  outer loop
   vertex 155.774963 241.055344 28.151855
   vertex 157.363937 243.629471 30.903805
   vertex 156.187469 239.626404 28.866325
  endloop
 endfacet
 facet normal -0.002408 0.000029 0.999997
  outer loop
   vertex 157.363937 243.629471 30.903805
   vertex 180.626694 243.824509 30.959816
   vertex 157.363556 251.628433 30.903572
  endloop
 endfacet
 facet normal 0.866027 0.000021 -0.499997
  outer loop
   vertex 157.363739 235.628967 30.903690
   vertex 150.363754 237.978958 18.779345
   vertex 151.078201 238.803955 20.016850
  endloop
 endfacet
 facet normal -0.866022 0.000000 0.500005
  outer loop
   vertex 152.320068 254.213242 30.167780
   vertex 152.481735 240.793121 30.447796
   vertex 152.695267 240.053452 30.817638
  endloop
 endfacet
 facet normal -0.866010 0.000001 0.500026
  outer loop
   vertex 152.320068 254.213242 30.167780
   vertex 152.695267 240.053452 30.817638
   vertex 152.618073 254.825043 30.683901
  endloop
 endfacet
 facet normal -1.000000 0.000000 0.000001
  outer loop
   vertex 172.863693 242.810547 15.338763
   vertex 172.863708 243.630188 30.959814
   vertex 172.863693 243.628433 15.338763
  endloop
 endfacet
 facet normal 0.000000 -1.000000 0.000000
  outer loop
   vertex 187.467331 251.248871 19.605717
   vertex 186.905121 251.248871 26.681065
   vertex 186.705231 251.248871 19.457066
  endloop
 endfacet
 facet normal 0.000000 -1.000000 0.000000
  outer loop
   vertex 187.822250 251.248871 29.537422
   vertex 183.678802 251.248871 30.959812
   vertex 187.046707 251.248871 29.575371
  endloop
 endfacet
 facet normal -0.866084 -0.000000 0.499898
  outer loop
   vertex 152.618073 254.825043 30.683901
   vertex 152.695267 240.053452 30.817638
   vertex 152.723160 255.652863 30.865967
  endloop
 endfacet
 facet normal -0.866033 0.000000 0.499987
  outer loop
   vertex 144.899658 235.628967 17.315228
   vertex 146.102737 239.201904 19.399092
   vertex 144.899658 259.628937 17.315224
  endloop
 endfacet
 facet normal 0.000000 -1.000000 0.000000
  outer loop
   vertex 188.860077 251.248871 18.005651
   vertex 188.791870 251.248871 27.650673
   vertex 188.495102 251.248871 19.094126
  endloop
 endfacet
 facet normal -0.866028 -0.000007 0.499996
  outer loop
   vertex 146.102737 239.201904 19.399092
   vertex 144.899658 235.628967 17.315228
   vertex 146.686096 238.035156 20.409494
  endloop
 endfacet
 facet normal 0.866022 -0.000011 -0.500005
  outer loop
   vertex 150.776245 241.057892 19.493805
   vertex 148.363998 243.628433 15.315676
   vertex 157.363937 243.629471 30.903805
  endloop
 endfacet
 facet normal 0.000000 -1.000000 0.000000
  outer loop
   vertex 177.045822 238.628448 15.338758
   vertex 187.363693 238.628448 16.609453
   vertex 186.064651 238.628448 17.359447
  endloop
 endfacet
 facet normal -0.866026 -0.000012 0.499999
  outer loop
   vertex 146.686096 238.035156 20.409494
   vertex 144.899658 235.628967 17.315228
   vertex 153.899643 235.628967 32.903687
  endloop
 endfacet
 facet normal 0.866039 -0.000008 -0.499976
  outer loop
   vertex 157.363556 251.628433 30.903572
   vertex 155.953293 254.479904 28.460722
   vertex 156.156357 256.079163 28.812437
  endloop
 endfacet
 facet normal -0.866015 0.000113 0.500017
  outer loop
   vertex 146.686096 238.035156 20.409494
   vertex 153.899643 235.628967 32.903687
   vertex 147.113174 238.035156 21.149181
  endloop
 endfacet
 facet normal 0.000000 -0.000002 -1.000000
  outer loop
   vertex 190.863693 256.628479 15.338764
   vertex 172.863693 252.446304 15.338763
   vertex 177.045822 256.628479 15.338758
  endloop
 endfacet
 facet normal 0.000000 -1.000000 0.000000
  outer loop
   vertex 188.863678 238.628448 18.109455
   vertex 190.863678 238.628448 15.338760
   vertex 188.863678 238.628448 28.109249
  endloop
 endfacet
 facet normal -0.866026 -0.000011 0.499998
  outer loop
   vertex 147.113174 238.035156 21.149181
   vertex 153.899643 235.628967 32.903687
   vertex 147.483002 238.462219 21.789753
  endloop
 endfacet
 facet normal -0.866022 0.000029 0.500006
  outer loop
   vertex 147.483002 238.462219 21.789753
   vertex 153.899643 235.628967 32.903687
   vertex 147.696548 239.201904 22.159578
  endloop
 endfacet
 facet normal -0.333574 0.942724 0.000000
  outer loop
   vertex 183.678802 244.063965 30.959812
   vertex 182.694382 243.715637 15.338760
   vertex 182.694382 243.715637 30.959812
  endloop
 endfacet
 facet normal -0.608643 -0.018642 0.793225
  outer loop
   vertex 188.113693 238.628448 26.810213
   vertex 188.662735 244.063965 27.359236
   vertex 187.751907 244.063965 26.660357
  endloop
 endfacet
 facet normal -0.866029 -0.000020 0.499994
  outer loop
   vertex 147.696548 239.201904 22.159578
   vertex 153.899643 235.628967 32.903687
   vertex 151.684830 238.032608 29.067551
  endloop
 endfacet
 facet normal -0.002587 0.000841 0.999996
  outer loop
   vertex 157.363556 251.628433 30.903572
   vertex 177.869217 247.838760 30.959816
   vertex 178.509537 249.807816 30.959816
  endloop
 endfacet
 facet normal -0.866027 0.000012 0.499998
  outer loop
   vertex 147.696548 239.201904 22.159578
   vertex 151.684830 238.032608 29.067551
   vertex 151.101471 239.199341 28.057110
  endloop
 endfacet
 facet normal -0.866027 0.000000 0.499998
  outer loop
   vertex 147.696548 239.201904 22.159578
   vertex 151.101471 239.199341 28.057110
   vertex 147.696548 256.056000 22.159578
  endloop
 endfacet
 facet normal 0.000000 1.000000 0.000000
  outer loop
   vertex 186.551086 256.628418 26.848406
   vertex 187.076523 256.628418 19.581562
   vertex 186.029541 256.628418 27.423611
  endloop
 endfacet
 facet normal -0.866040 -0.000011 0.499974
  outer loop
   vertex 147.696548 256.056000 22.159578
   vertex 151.101471 239.199341 28.057110
   vertex 151.101471 240.053452 28.057129
  endloop
 endfacet
 facet normal 0.866022 -0.000001 -0.500006
  outer loop
   vertex 149.780396 238.462234 17.768917
   vertex 148.363739 235.628967 15.315239
   vertex 148.363998 243.628433 15.315676
  endloop
 endfacet
 facet normal 0.999317 0.036945 -0.000010
  outer loop
   vertex 186.064636 238.628448 27.359245
   vertex 185.863693 244.063965 28.109238
   vertex 186.064651 238.628448 28.859232
  endloop
 endfacet
 facet normal -0.866017 0.000024 0.500015
  outer loop
   vertex 151.684830 238.032608 29.067551
   vertex 153.899643 235.628967 32.903687
   vertex 152.111893 238.032608 29.807217
  endloop
 endfacet
 facet normal 0.866011 0.000022 -0.500025
  outer loop
   vertex 149.780396 254.462219 17.768917
   vertex 148.363770 251.627396 15.315286
   vertex 149.566849 255.201904 17.399101
  endloop
 endfacet
 facet normal -0.866024 0.000003 0.500002
  outer loop
   vertex 152.111893 238.032608 29.807217
   vertex 153.899643 235.628967 32.903687
   vertex 152.481735 238.459656 30.447796
  endloop
 endfacet
 facet normal 0.052581 0.998617 0.000000
  outer loop
   vertex 180.626694 243.824509 15.338760
   vertex 182.694382 243.715637 30.959812
   vertex 182.694382 243.715637 15.338760
  endloop
 endfacet
 facet normal -0.866029 -0.000007 0.499993
  outer loop
   vertex 152.481735 238.459656 30.447796
   vertex 153.899643 235.628967 32.903687
   vertex 152.695251 239.199341 30.817635
  endloop
 endfacet
 facet normal -0.866014 0.000013 0.500020
  outer loop
   vertex 152.695251 239.199341 30.817635
   vertex 153.899643 235.628967 32.903687
   vertex 152.695267 240.053452 30.817638
  endloop
 endfacet
 facet normal -0.866026 0.000002 0.499999
  outer loop
   vertex 144.899658 259.628937 17.315224
   vertex 146.487152 257.057892 20.064857
   vertex 153.899643 259.628937 32.903687
  endloop
 endfacet
 facet normal -0.029790 -0.999338 -0.020867
  outer loop
   vertex 182.074020 251.622894 15.338758
   vertex 185.897583 251.248871 27.792265
   vertex 183.678802 251.248871 30.959812
  endloop
 endfacet
 facet normal -0.004996 -0.007685 0.999958
  outer loop
   vertex 157.363556 251.628433 30.903572
   vertex 180.626694 243.824509 30.959816
   vertex 178.890457 244.952637 30.959812
  endloop
 endfacet
 facet normal 0.866023 -0.000047 -0.500005
  outer loop
   vertex 157.363556 251.628433 30.903572
   vertex 151.078201 254.803955 20.016850
   vertex 155.159256 254.032013 27.085432
  endloop
 endfacet
 facet normal -0.866019 0.000019 0.500012
  outer loop
   vertex 146.487152 257.057892 20.064857
   vertex 144.899658 259.628937 17.315224
   vertex 146.102737 256.056000 19.399092
  endloop
 endfacet
 facet normal 0.000000 -1.000000 0.000000
  outer loop
   vertex 188.495102 251.248871 19.094126
   vertex 188.049316 251.248871 26.775116
   vertex 187.467331 251.248871 19.605717
  endloop
 endfacet
 facet normal -0.866033 0.000000 0.499987
  outer loop
   vertex 146.102737 256.056000 19.399092
   vertex 144.899658 259.628937 17.315224
   vertex 146.102737 239.201904 19.399092
  endloop
 endfacet
 facet normal 0.865992 0.000383 -0.500057
  outer loop
   vertex 153.899643 259.628937 32.903687
   vertex 146.487152 257.057892 20.064857
   vertex 146.899628 257.278961 20.779346
  endloop
 endfacet
 facet normal -0.866022 -0.000033 0.500006
  outer loop
   vertex 153.899643 259.628937 32.903687
   vertex 146.899628 257.278961 20.779346
   vertex 147.312134 257.057892 21.493801
  endloop
 endfacet
 facet normal 0.000000 1.000000 0.000000
  outer loop
   vertex 183.678802 244.063965 30.959812
   vertex 187.751907 244.063965 29.558128
   vertex 186.975449 244.063965 29.558123
  endloop
 endfacet
 facet normal -0.866023 -0.000021 0.500004
  outer loop
   vertex 153.899643 259.628937 32.903687
   vertex 147.312134 257.057892 21.493801
   vertex 147.696548 256.056000 22.159578
  endloop
 endfacet
 facet normal -0.923881 0.000002 -0.382679
  outer loop
   vertex 188.863708 244.063965 18.109436
   vertex 188.424362 238.628448 19.170097
   vertex 188.424377 244.063965 19.170088
  endloop
 endfacet
 facet normal 0.499822 0.027559 0.865689
  outer loop
   vertex 186.064651 238.628448 17.359447
   vertex 186.975449 244.063965 16.660542
   vertex 186.303024 244.063965 17.048779
  endloop
 endfacet
 facet normal 0.000000 -1.000000 0.000000
  outer loop
   vertex 188.829819 251.248871 28.426197
   vertex 190.863693 251.248871 30.959812
   vertex 188.176254 251.248871 29.370090
  endloop
 endfacet
 facet normal -0.866027 0.000010 0.499996
  outer loop
   vertex 153.899643 259.628937 32.903687
   vertex 147.696548 256.056000 22.159578
   vertex 151.674286 257.219299 29.049265
  endloop
 endfacet
 facet normal -0.866029 0.000029 0.499994
  outer loop
   vertex 151.674286 257.219299 29.049265
   vertex 147.696548 256.056000 22.159578
   vertex 151.178406 256.437469 28.190407
  endloop
 endfacet
 facet normal -0.003583 0.143127 0.989698
  outer loop
   vertex 180.626694 243.824509 30.959816
   vertex 157.363937 243.629471 30.903805
   vertex 172.863708 243.630188 30.959814
  endloop
 endfacet
 facet normal -0.923885 0.000004 -0.382671
  outer loop
   vertex 188.424362 238.628448 19.170097
   vertex 188.863708 244.063965 18.109436
   vertex 188.863678 238.628448 18.109455
  endloop
 endfacet
 facet normal 0.499794 -0.027558 -0.865706
  outer loop
   vertex 186.975464 238.628448 19.558327
   vertex 186.064636 244.063965 18.859455
   vertex 187.363708 244.063965 19.609442
  endloop
 endfacet
 facet normal -0.866028 -0.000001 0.499995
  outer loop
   vertex 151.178406 256.437469 28.190407
   vertex 147.696548 256.056000 22.159578
   vertex 151.101471 240.053452 28.057129
  endloop
 endfacet
 facet normal 0.000000 -1.000000 0.000000
  outer loop
   vertex 188.424362 238.628448 19.170097
   vertex 188.863678 238.628448 28.109249
   vertex 188.113693 238.628448 26.810213
  endloop
 endfacet
 facet normal -0.866034 0.000032 0.499986
  outer loop
   vertex 153.899643 259.628937 32.903687
   vertex 151.674286 257.219299 29.049265
   vertex 152.101288 257.230469 29.788881
  endloop
 endfacet
 facet normal 0.000000 1.000000 0.000000
  outer loop
   vertex 188.812576 244.063965 28.497461
   vertex 190.863693 244.063965 30.959812
   vertex 188.863708 244.063965 18.109436
  endloop
 endfacet
 facet normal 0.000000 1.000000 0.000000
  outer loop
   vertex 188.113708 244.063965 16.810398
   vertex 190.863678 244.063965 15.338760
   vertex 183.678787 244.063965 15.338761
  endloop
 endfacet
 facet normal -0.866019 -0.000011 0.500011
  outer loop
   vertex 153.899643 259.628937 32.903687
   vertex 152.101288 257.230469 29.788881
   vertex 152.607254 256.474915 30.665199
  endloop
 endfacet
 facet normal 0.000942 -0.000049 -1.000000
  outer loop
   vertex 148.363770 251.627396 15.315286
   vertex 172.863693 243.628433 15.338763
   vertex 148.363998 243.628433 15.315676
  endloop
 endfacet
 facet normal 0.000000 1.000000 0.000000
  outer loop
   vertex 186.975449 244.063965 16.660542
   vertex 183.678787 244.063965 15.338761
   vertex 186.303024 244.063965 17.048779
  endloop
 endfacet
 facet normal -0.866029 0.000006 0.499993
  outer loop
   vertex 153.899643 259.628937 32.903687
   vertex 152.607254 256.474915 30.665199
   vertex 152.723160 255.652863 30.865967
  endloop
 endfacet
 facet normal -0.866024 -0.000001 0.500002
  outer loop
   vertex 153.899643 259.628937 32.903687
   vertex 152.723160 255.652863 30.865967
   vertex 152.695267 240.053452 30.817638
  endloop
 endfacet
 facet normal -0.866026 0.000000 0.499999
  outer loop
   vertex 153.899643 259.628937 32.903687
   vertex 152.695267 240.053452 30.817638
   vertex 153.899643 235.628967 32.903687
  endloop
 endfacet
 facet normal 0.000000 0.000000 0.000000
  outer loop
   vertex 146.102737 240.056000 19.399092
   vertex 146.102737 256.056000 19.399092
   vertex 146.102737 239.201904 19.399092
  endloop
 endfacet
 facet normal -1.000000 0.000000 0.000000
  outer loop
   vertex 146.102737 256.056000 19.399092
   vertex 146.102737 240.056000 19.399092
   vertex 146.102737 255.201904 19.399094
  endloop
 endfacet
 facet normal -0.865998 -0.000000 0.500047
  outer loop
   vertex 146.102737 255.201904 19.399094
   vertex 146.102737 240.056000 19.399092
   vertex 146.316284 240.795670 19.768919
  endloop
 endfacet
 facet normal 0.000000 -1.000000 0.000000
  outer loop
   vertex 186.705231 251.248871 19.457066
   vertex 185.897583 251.248871 27.792265
   vertex 185.867264 251.248871 18.212959
  endloop
 endfacet
 facet normal 0.000006 1.000000 0.000004
  outer loop
   vertex 186.525726 256.628418 16.865194
   vertex 177.045822 256.628479 15.338758
   vertex 185.891418 256.628418 17.822132
  endloop
 endfacet
 facet normal -0.866018 -0.000001 0.500013
  outer loop
   vertex 146.102737 255.201904 19.399094
   vertex 146.316284 240.795670 19.768919
   vertex 146.686111 254.035156 20.409489
  endloop
 endfacet
 facet normal -0.000000 0.000004 1.000000
  outer loop
   vertex 177.045822 238.628448 30.959827
   vertex 190.863693 244.063965 30.959812
   vertex 172.863693 242.810547 30.959810
  endloop
 endfacet
 facet normal 0.866033 -0.000065 -0.499987
  outer loop
   vertex 151.078201 238.803955 20.016850
   vertex 155.363754 241.128952 27.439594
   vertex 154.647980 240.451401 26.199883
  endloop
 endfacet
 facet normal 0.000000 1.000000 0.000000
  outer loop
   vertex 186.551086 256.628418 26.848406
   vertex 187.851120 256.628418 19.527912
   vertex 187.076523 256.628418 19.581562
  endloop
 endfacet
 facet normal 0.000000 -1.000000 0.000000
  outer loop
   vertex 177.045822 238.628448 15.338758
   vertex 185.863693 238.628448 18.109455
   vertex 177.045822 238.628448 30.959827
  endloop
 endfacet
 facet normal -0.866036 0.000001 0.499982
  outer loop
   vertex 146.686111 254.035156 20.409489
   vertex 146.316284 240.795670 19.768919
   vertex 146.899628 241.278946 20.779346
  endloop
 endfacet
 facet normal -0.866025 0.000001 0.500001
  outer loop
   vertex 146.686111 254.035156 20.409489
   vertex 146.899628 241.278946 20.779346
   vertex 147.113174 254.035156 21.149181
  endloop
 endfacet
 facet normal -0.866017 0.000001 0.500014
  outer loop
   vertex 147.113174 254.035156 21.149181
   vertex 146.899628 241.278946 20.779346
   vertex 147.312134 241.057892 21.493801
  endloop
 endfacet
 facet normal 0.000000 1.000000 0.000000
  outer loop
   vertex 186.064636 244.063965 27.359240
   vertex 186.064636 244.063965 18.859455
   vertex 185.863693 244.063965 28.109238
  endloop
 endfacet
 facet normal 0.000000 -1.000000 0.000000
  outer loop
   vertex 183.678802 244.063965 30.959812
   vertex 188.113693 244.063965 29.408276
   vertex 187.751907 244.063965 29.558128
  endloop
 endfacet
 facet normal 0.000005 0.000000 1.000000
  outer loop
   vertex 186.975433 238.628448 26.660360
   vertex 187.751907 244.063965 26.660357
   vertex 186.975433 244.063965 26.660360
  endloop
 endfacet
 facet normal -0.865996 0.000002 0.500050
  outer loop
   vertex 147.113174 254.035156 21.149181
   vertex 147.312134 241.057892 21.493801
   vertex 147.696564 240.056000 22.159569
  endloop
 endfacet
 facet normal -0.866027 -0.000003 0.499997
  outer loop
   vertex 147.113174 254.035156 21.149181
   vertex 147.696564 240.056000 22.159569
   vertex 147.483002 254.462219 21.789749
  endloop
 endfacet
 facet normal 0.000000 -1.000000 0.000000
  outer loop
   vertex 188.860077 251.248871 18.005651
   vertex 190.863678 251.248871 15.338760
   vertex 188.829819 251.248871 28.426197
  endloop
 endfacet
 facet normal -0.865978 0.000000 0.500082
  outer loop
   vertex 147.483002 254.462219 21.789749
   vertex 147.696564 240.056000 22.159569
   vertex 147.696564 255.201904 22.159569
  endloop
 endfacet
 facet normal 0.866025 0.000042 -0.500001
  outer loop
   vertex 151.078217 256.453979 20.016834
   vertex 155.138367 257.219299 27.049263
   vertex 154.642532 256.437469 26.190390
  endloop
 endfacet
 facet normal 0.866033 -0.000015 -0.499987
  outer loop
   vertex 156.156357 256.079163 28.812437
   vertex 157.363754 259.628937 30.903681
   vertex 157.363556 251.628433 30.903572
  endloop
 endfacet
 facet normal -0.529999 0.000000 -0.847998
  outer loop
   vertex 147.696564 255.201904 22.159569
   vertex 147.696564 240.056000 22.159569
   vertex 147.696548 239.201904 22.159578
  endloop
 endfacet
 facet normal -0.529999 0.000000 -0.847998
  outer loop
   vertex 147.696564 255.201904 22.159569
   vertex 147.696548 239.201904 22.159578
   vertex 147.696548 256.056000 22.159578
  endloop
 endfacet
 facet normal 0.866020 0.000004 -0.500010
  outer loop
   vertex 155.938004 256.813171 28.434254
   vertex 157.363754 259.628937 30.903681
   vertex 156.156357 256.079163 28.812437
  endloop
 endfacet
 facet normal -0.396674 -0.608765 -0.687062
  outer loop
   vertex 150.776245 241.057892 19.493805
   vertex 147.696564 240.056000 22.159569
   vertex 147.312134 241.057892 21.493801
  endloop
 endfacet
 facet normal -0.054664 -0.995201 -0.081156
  outer loop
   vertex 182.074020 251.622894 15.338758
   vertex 186.876266 251.248871 16.690708
   vertex 186.232269 251.248871 17.124481
  endloop
 endfacet
 facet normal -0.000000 1.000000 0.000048
  outer loop
   vertex 187.260025 256.628418 16.612883
   vertex 190.863693 256.628479 15.338764
   vertex 177.045822 256.628479 15.338758
  endloop
 endfacet
 facet normal 0.965932 0.000000 0.258797
  outer loop
   vertex 185.863693 244.063965 28.109238
   vertex 186.064636 238.628448 27.359245
   vertex 186.064636 244.063965 27.359240
  endloop
 endfacet
 facet normal -0.129409 -0.965926 -0.224143
  outer loop
   vertex 150.776245 241.057892 19.493805
   vertex 147.312134 241.057892 21.493801
   vertex 146.899628 241.278946 20.779346
  endloop
 endfacet
 facet normal -0.047787 -0.998477 0.027589
  outer loop
   vertex 146.899628 241.278946 20.779346
   vertex 149.951263 241.057892 18.064869
   vertex 150.776245 241.057892 19.493805
  endloop
 endfacet
 facet normal 0.215396 -0.923520 0.317357
  outer loop
   vertex 149.951263 241.057892 18.064869
   vertex 146.899628 241.278946 20.779346
   vertex 146.316284 240.795670 19.768919
  endloop
 endfacet
 facet normal -0.002428 0.002690 0.999993
  outer loop
   vertex 157.363556 251.628433 30.903572
   vertex 178.509537 249.807816 30.959816
   vertex 180.048584 251.192902 30.959827
  endloop
 endfacet
 facet normal -0.098360 -0.995151 0.000311
  outer loop
   vertex 182.074020 251.622894 15.338758
   vertex 185.867264 251.248871 18.212959
   vertex 185.897583 251.248871 27.792265
  endloop
 endfacet
 facet normal 0.341345 -0.707041 0.619335
  outer loop
   vertex 146.316284 240.795670 19.768919
   vertex 149.649261 240.453949 17.541847
   vertex 149.951263 241.057892 18.064869
  endloop
 endfacet
 facet normal 0.000000 0.000000 1.000000
  outer loop
   vertex 190.863678 244.063965 15.338760
   vertex 180.626694 243.824509 15.338760
   vertex 182.694382 243.715637 15.338760
  endloop
 endfacet
 facet normal 0.000000 1.000000 0.000000
  outer loop
   vertex 190.863693 244.063965 30.959812
   vertex 188.113693 244.063965 29.408276
   vertex 183.678802 244.063965 30.959812
  endloop
 endfacet
 facet normal -0.866028 -0.000000 0.499995
  outer loop
   vertex 148.363998 243.628433 15.315676
   vertex 157.363556 251.628433 30.903572
   vertex 148.363770 251.627396 15.315286
  endloop
 endfacet
 facet normal -0.866046 0.000246 0.499964
  outer loop
   vertex 149.951248 257.057892 18.064871
   vertex 157.363754 259.628937 30.903681
   vertex 150.363770 257.278961 18.779339
  endloop
 endfacet
 facet normal 0.445139 -0.499955 0.742897
  outer loop
   vertex 146.102737 240.056000 19.399092
   vertex 149.649261 240.453949 17.541847
   vertex 146.316284 240.795670 19.768919
  endloop
 endfacet
 facet normal 0.000000 -1.000000 0.000000
  outer loop
   vertex 186.705231 251.248871 19.457066
   vertex 186.905121 251.248871 26.681065
   vertex 185.897583 251.248871 27.792265
  endloop
 endfacet
 facet normal 0.463917 0.000000 0.885879
  outer loop
   vertex 146.102737 239.201904 19.399092
   vertex 149.649261 240.453949 17.541847
   vertex 146.102737 240.056000 19.399092
  endloop
 endfacet
 facet normal 0.495723 -0.130534 0.858615
  outer loop
   vertex 149.649261 240.453949 17.541847
   vertex 146.102737 239.201904 19.399092
   vertex 149.566849 239.201904 17.399082
  endloop
 endfacet
 facet normal 0.866014 -0.000014 -0.500020
  outer loop
   vertex 156.187469 239.626404 28.866325
   vertex 157.363937 243.629471 30.903805
   vertex 157.363739 235.628967 30.903690
  endloop
 endfacet
 facet normal 0.950670 -0.309150 0.025572
  outer loop
   vertex 177.950882 246.797745 15.338762
   vertex 178.509537 249.807816 30.959816
   vertex 177.869217 247.838760 30.959816
  endloop
 endfacet
 facet normal -0.965888 0.009402 -0.258789
  outer loop
   vertex 188.662735 238.628448 28.859238
   vertex 188.812576 244.063965 28.497461
   vertex 188.863678 238.628448 28.109249
  endloop
 endfacet
 facet normal 0.522491 0.497187 0.692682
  outer loop
   vertex 149.566849 239.201904 17.399082
   vertex 146.686096 238.035156 20.409494
   vertex 149.780396 238.462234 17.768917
  endloop
 endfacet
 facet normal 0.353559 0.707096 0.612381
  outer loop
   vertex 146.686096 238.035156 20.409494
   vertex 149.566849 239.201904 17.399082
   vertex 146.102737 239.201904 19.399092
  endloop
 endfacet
 facet normal 0.167133 0.923521 0.345218
  outer loop
   vertex 149.780396 238.462234 17.768917
   vertex 146.686096 238.035156 20.409494
   vertex 150.363754 237.978958 18.779345
  endloop
 endfacet
 facet normal 0.499803 -0.027556 -0.865701
  outer loop
   vertex 186.064636 244.063965 18.859455
   vertex 186.975464 238.628448 19.558327
   vertex 186.303024 238.628448 19.170101
  endloop
 endfacet
 facet normal 0.000000 1.000000 0.000000
  outer loop
   vertex 186.975433 244.063965 26.660360
   vertex 186.064636 244.063965 18.859455
   vertex 186.064636 244.063965 27.359240
  endloop
 endfacet
 facet normal 0.000740 -0.000630 -1.000000
  outer loop
   vertex 148.363770 251.627396 15.315286
   vertex 179.187912 250.601669 15.338757
   vertex 178.509537 249.807816 15.338755
  endloop
 endfacet
 facet normal 0.000000 0.000002 -1.000000
  outer loop
   vertex 172.863693 242.810547 15.338763
   vertex 190.863678 238.628448 15.338760
   vertex 177.045822 238.628448 15.338758
  endloop
 endfacet
 facet normal 0.012166 0.999901 -0.007024
  outer loop
   vertex 147.113174 238.035156 21.149181
   vertex 150.363754 237.978958 18.779345
   vertex 146.686096 238.035156 20.409494
  endloop
 endfacet
 facet normal -0.865623 0.000438 0.500697
  outer loop
   vertex 149.780396 238.462234 17.768917
   vertex 148.363998 243.628433 15.315676
   vertex 149.566849 239.201904 17.399082
  endloop
 endfacet
 facet normal 0.000000 1.000000 0.000000
  outer loop
   vertex 186.303024 238.628448 19.170101
   vertex 186.064636 238.628448 27.359245
   vertex 186.064651 238.628448 28.859232
  endloop
 endfacet
 facet normal -0.608755 0.000000 -0.793358
  outer loop
   vertex 187.751907 244.063965 29.558128
   vertex 188.662735 238.628448 28.859238
   vertex 187.751907 238.628448 29.558128
  endloop
 endfacet
 facet normal 0.000000 1.000000 0.000000
  outer loop
   vertex 177.045822 238.628448 15.338758
   vertex 187.751892 238.628448 16.660557
   vertex 187.363693 238.628448 16.609453
  endloop
 endfacet
 facet normal -0.285448 0.865290 -0.412059
  outer loop
   vertex 150.363754 237.978958 18.779345
   vertex 147.483002 238.462219 21.789753
   vertex 151.078201 238.803955 20.016850
  endloop
 endfacet
 facet normal -0.285459 0.865282 -0.412068
  outer loop
   vertex 147.483002 238.462219 21.789753
   vertex 150.363754 237.978958 18.779345
   vertex 147.113174 238.035156 21.149181
  endloop
 endfacet
 facet normal -0.420800 0.499945 -0.756956
  outer loop
   vertex 147.696548 239.201904 22.159578
   vertex 151.078201 238.803955 20.016850
   vertex 147.483002 238.462219 21.789753
  endloop
 endfacet
 facet normal 0.000068 -0.002725 -0.999996
  outer loop
   vertex 148.363770 251.627396 15.315286
   vertex 180.626694 243.824509 15.338760
   vertex 172.863693 243.628433 15.338763
  endloop
 endfacet
 facet normal 0.000000 -1.000000 0.000000
  outer loop
   vertex 188.791870 251.248871 27.650673
   vertex 188.860077 251.248871 18.005651
   vertex 188.829819 251.248871 28.426197
  endloop
 endfacet
 facet normal 0.000000 1.000000 0.000000
  outer loop
   vertex 188.176254 251.248871 29.370090
   vertex 183.678802 251.248871 30.959812
   vertex 187.822250 251.248871 29.537422
  endloop
 endfacet
 facet normal -0.000025 1.000000 0.000004
  outer loop
   vertex 190.863693 256.628479 15.338764
   vertex 188.782272 256.628418 17.621870
   vertex 190.863693 256.628418 30.959805
  endloop
 endfacet
 facet normal 0.000000 1.000000 0.000000
  outer loop
   vertex 177.045822 256.628418 30.959806
   vertex 186.102859 256.628418 28.921818
   vertex 186.029541 256.628418 27.423611
  endloop
 endfacet
 facet normal -0.535233 0.000000 -0.844704
  outer loop
   vertex 147.696564 240.056000 22.159569
   vertex 151.078201 238.803955 20.016850
   vertex 147.696548 239.201904 22.159578
  endloop
 endfacet
 facet normal -0.535233 0.000000 -0.844704
  outer loop
   vertex 151.078201 238.803955 20.016850
   vertex 147.696564 240.056000 22.159569
   vertex 151.078201 240.453949 20.016850
  endloop
 endfacet
 facet normal 0.000000 1.000000 0.000000
  outer loop
   vertex 187.751907 244.063965 16.660547
   vertex 183.678787 244.063965 15.338761
   vertex 186.975449 244.063965 16.660542
  endloop
 endfacet
 facet normal 0.000000 1.000000 0.000000
  outer loop
   vertex 188.791901 256.628418 27.650669
   vertex 187.851120 256.628418 19.527912
   vertex 188.049316 256.628418 26.775112
  endloop
 endfacet
 facet normal 0.020654 -0.942324 -0.334064
  outer loop
   vertex 182.074020 251.622894 15.338758
   vertex 188.022125 251.248871 16.761553
   vertex 186.876266 251.248871 16.690708
  endloop
 endfacet
 facet normal -0.317592 -0.706511 -0.632438
  outer loop
   vertex 151.078201 240.453949 20.016850
   vertex 147.696564 240.056000 22.159569
   vertex 150.776245 241.057892 19.493805
  endloop
 endfacet
 facet normal 0.866025 0.000001 -0.500001
  outer loop
   vertex 149.951248 257.057892 18.064871
   vertex 148.363739 259.628937 15.315236
   vertex 157.363754 259.628937 30.903681
  endloop
 endfacet
 facet normal 0.000000 1.000000 0.000000
  outer loop
   vertex 183.678802 244.063965 30.959812
   vertex 186.303024 244.063965 29.169901
   vertex 185.863693 244.063965 28.109238
  endloop
 endfacet
 facet normal -0.000006 1.000000 0.000031
  outer loop
   vertex 188.022125 256.628418 16.761553
   vertex 190.863693 256.628479 15.338764
   vertex 187.260025 256.628418 16.612883
  endloop
 endfacet
 facet normal -0.237803 0.865943 -0.439991
  outer loop
   vertex 152.481735 238.459656 30.447796
   vertex 155.774963 238.197449 28.151852
   vertex 152.111893 238.032608 29.807217
  endloop
 endfacet
 facet normal -1.000000 0.000000 0.000000
  outer loop
   vertex 172.863693 252.446304 30.959812
   vertex 172.863693 251.626587 15.338763
   vertex 172.863693 251.627563 30.959810
  endloop
 endfacet
 facet normal -0.130502 0.018643 0.991273
  outer loop
   vertex 187.751907 244.063965 26.660357
   vertex 186.975433 238.628448 26.660360
   vertex 188.113693 238.628448 26.810213
  endloop
 endfacet
 facet normal -0.468309 0.499567 -0.728780
  outer loop
   vertex 152.695251 239.199341 30.817635
   vertex 155.774963 238.197449 28.151852
   vertex 152.481735 238.459656 30.447796
  endloop
 endfacet
 facet normal -0.468304 0.499575 -0.728777
  outer loop
   vertex 155.774963 238.197449 28.151852
   vertex 152.695251 239.199341 30.817635
   vertex 156.187469 239.626404 28.866325
  endloop
 endfacet
 facet normal -0.487780 0.000013 -0.872967
  outer loop
   vertex 152.695267 240.053452 30.817638
   vertex 156.187469 239.626404 28.866325
   vertex 152.695251 239.199341 30.817635
  endloop
 endfacet
 facet normal 0.000000 1.000000 0.000000
  outer loop
   vertex 188.113693 244.063965 29.408276
   vertex 190.863693 244.063965 30.959812
   vertex 188.812576 244.063965 28.497461
  endloop
 endfacet
 facet normal 0.000000 -1.000000 0.000000
  outer loop
   vertex 190.863693 251.248871 30.959812
   vertex 188.829819 251.248871 28.426197
   vertex 190.863678 251.248871 15.338760
  endloop
 endfacet
 facet normal -0.468304 -0.499578 -0.728775
  outer loop
   vertex 156.187469 239.626404 28.866325
   vertex 152.695267 240.053452 30.817638
   vertex 155.774963 241.055344 28.151855
  endloop
 endfacet
 facet normal -0.042362 -0.995514 -0.084603
  outer loop
   vertex 190.863678 251.248871 15.338760
   vertex 188.022125 251.248871 16.761553
   vertex 182.074020 251.622894 15.338758
  endloop
 endfacet
 facet normal 0.000000 1.000000 0.000000
  outer loop
   vertex 183.678802 244.063965 30.959812
   vertex 186.975449 244.063965 29.558123
   vertex 186.303024 244.063965 29.169901
  endloop
 endfacet
 facet normal -0.468300 -0.499585 -0.728773
  outer loop
   vertex 152.481735 240.793121 30.447796
   vertex 155.774963 241.055344 28.151855
   vertex 152.695267 240.053452 30.817638
  endloop
 endfacet
 facet normal 0.000000 1.000000 0.000000
  outer loop
   vertex 190.863693 256.628418 30.959805
   vertex 187.822235 256.628418 29.537434
   vertex 177.045822 256.628418 30.959806
  endloop
 endfacet
 facet normal 0.000007 -0.009403 -0.999956
  outer loop
   vertex 187.363693 238.628448 29.609238
   vertex 186.975449 244.063965 29.558123
   vertex 187.751907 244.063965 29.558128
  endloop
 endfacet
 facet normal 0.866027 0.000000 -0.499997
  outer loop
   vertex 148.363739 259.628937 15.315236
   vertex 149.649261 256.453979 17.541845
   vertex 148.363770 251.627396 15.315286
  endloop
 endfacet
 facet normal 0.000000 -1.000000 0.000000
  outer loop
   vertex 186.975464 238.628448 19.558327
   vertex 186.064636 238.628448 27.359245
   vertex 186.303024 238.628448 19.170101
  endloop
 endfacet
 facet normal 0.000000 -1.000000 0.000000
  outer loop
   vertex 188.662735 238.628448 28.859238
   vertex 190.863693 238.628448 30.959812
   vertex 187.751907 238.628448 29.558128
  endloop
 endfacet
 facet normal 0.005371 -0.994366 -0.105863
  outer loop
   vertex 152.481735 240.793121 30.447796
   vertex 155.363754 241.128952 27.439594
   vertex 155.774963 241.055344 28.151855
  endloop
 endfacet
 facet normal -0.220496 -0.923352 -0.314328
  outer loop
   vertex 155.363754 241.128952 27.439594
   vertex 152.481735 240.793121 30.447796
   vertex 151.898376 241.276398 29.437366
  endloop
 endfacet
 facet normal 0.923722 -0.018641 -0.382609
  outer loop
   vertex 186.303024 244.063965 29.169901
   vertex 186.064651 238.628448 28.859232
   vertex 185.863693 244.063965 28.109238
  endloop
 endfacet
 facet normal 0.161542 -0.923336 0.348360
  outer loop
   vertex 155.363754 241.128952 27.439594
   vertex 151.898376 241.276398 29.437366
   vertex 151.315018 240.793121 28.426949
  endloop
 endfacet
 facet normal 0.000000 1.000000 0.000000
  outer loop
   vertex 187.751907 244.063965 26.660357
   vertex 187.363708 244.063965 19.609442
   vertex 186.064636 244.063965 18.859455
  endloop
 endfacet
 facet normal 0.000000 1.000000 0.000000
  outer loop
   vertex 190.863678 238.628448 15.338760
   vertex 188.662735 238.628448 28.859238
   vertex 188.863678 238.628448 28.109249
  endloop
 endfacet
 facet normal 0.171114 -0.902777 0.394606
  outer loop
   vertex 151.315018 240.793121 28.426949
   vertex 154.647980 240.451401 26.199883
   vertex 155.363754 241.128952 27.439594
  endloop
 endfacet
 facet normal -0.000000 0.000000 -1.000000
  outer loop
   vertex 172.863693 243.628433 15.338763
   vertex 180.626694 243.824509 15.338760
   vertex 172.863693 242.810547 15.338763
  endloop
 endfacet
 facet normal 0.000000 0.000001 -1.000000
  outer loop
   vertex 182.074020 251.622894 15.338758
   vertex 190.863693 256.628479 15.338764
   vertex 190.863678 251.248871 15.338760
  endloop
 endfacet
 facet normal 0.000004 1.000000 0.000013
  outer loop
   vertex 187.260025 256.628418 16.612883
   vertex 177.045822 256.628479 15.338758
   vertex 186.525726 256.628418 16.865194
  endloop
 endfacet
 facet normal 0.000000 -1.000000 0.000000
  outer loop
   vertex 187.751892 238.628448 16.660557
   vertex 190.863678 238.628448 15.338760
   vertex 188.424362 238.628448 17.048786
  endloop
 endfacet
 facet normal 0.445142 -0.499949 0.742899
  outer loop
   vertex 151.101471 240.053452 28.057129
   vertex 154.647980 240.451401 26.199883
   vertex 151.315018 240.793121 28.426949
  endloop
 endfacet
 facet normal 0.866023 0.000001 -0.500004
  outer loop
   vertex 155.148956 238.032608 27.067532
   vertex 151.078201 238.803955 20.016850
   vertex 154.565582 239.199341 26.057110
  endloop
 endfacet
 facet normal 0.499812 0.027560 -0.865695
  outer loop
   vertex 186.303024 244.063965 29.169901
   vertex 187.363693 238.628448 29.609238
   vertex 186.064651 238.628448 28.859232
  endloop
 endfacet
 facet normal 0.495721 -0.130531 0.858616
  outer loop
   vertex 154.647980 240.451401 26.199883
   vertex 151.101471 239.199341 28.057110
   vertex 154.565582 239.199341 26.057110
  endloop
 endfacet
 facet normal 0.463921 -0.000020 0.885877
  outer loop
   vertex 151.101471 239.199341 28.057110
   vertex 154.647980 240.451401 26.199883
   vertex 151.101471 240.053452 28.057129
  endloop
 endfacet
 facet normal 0.000000 -1.000000 0.000000
  outer loop
   vertex 188.791901 256.628418 27.650669
   vertex 188.782272 256.628418 17.621870
   vertex 188.835953 256.628418 18.396477
  endloop
 endfacet
 facet normal 0.000000 1.000000 0.000000
  outer loop
   vertex 186.029541 256.628418 27.423611
   vertex 187.076523 256.628418 19.581562
   vertex 186.119583 256.628418 18.947283
  endloop
 endfacet
 facet normal 0.353553 0.707108 0.612371
  outer loop
   vertex 154.565582 239.199341 26.057110
   vertex 151.684830 238.032608 29.067551
   vertex 155.148956 238.032608 27.067532
  endloop
 endfacet
 facet normal 0.353551 0.707111 0.612369
  outer loop
   vertex 151.684830 238.032608 29.067551
   vertex 154.565582 239.199341 26.057110
   vertex 151.101471 239.199341 28.057110
  endloop
 endfacet
 facet normal 0.000000 1.000000 0.000000
  outer loop
   vertex 183.678802 244.063965 30.959812
   vertex 185.863693 244.063965 28.109238
   vertex 183.678787 244.063965 15.338761
  endloop
 endfacet
 facet normal 0.000000 1.000000 0.000000
  outer loop
   vertex 188.812576 244.063965 28.497461
   vertex 188.863708 244.063965 18.109436
   vertex 188.424377 244.063965 19.170088
  endloop
 endfacet
 facet normal 0.000007 1.000000 -0.000000
  outer loop
   vertex 185.891418 256.628418 17.822132
   vertex 177.045822 256.628479 15.338758
   vertex 186.029541 256.628418 27.423611
  endloop
 endfacet
 facet normal 0.866025 -0.000035 -0.500001
  outer loop
   vertex 150.776245 241.057892 19.493805
   vertex 157.363937 243.629471 30.903805
   vertex 151.078201 240.453949 20.016850
  endloop
 endfacet
 facet normal -0.065265 0.991444 -0.113042
  outer loop
   vertex 155.148956 238.032608 27.067532
   vertex 151.684830 238.032608 29.067551
   vertex 155.774963 238.197449 28.151852
  endloop
 endfacet
 facet normal 0.000015 0.009402 -0.999956
  outer loop
   vertex 187.363708 244.063965 19.609442
   vertex 187.751907 238.628448 19.558338
   vertex 186.975464 238.628448 19.558327
  endloop
 endfacet
 facet normal 0.000000 -1.000000 0.000000
  outer loop
   vertex 190.863693 244.063965 30.959812
   vertex 188.662735 244.063965 17.359449
   vertex 188.863708 244.063965 18.109436
  endloop
 endfacet
 facet normal -0.035659 0.999152 0.020588
  outer loop
   vertex 152.111893 238.032608 29.807217
   vertex 155.774963 238.197449 28.151852
   vertex 151.684830 238.032608 29.067551
  endloop
 endfacet
 facet normal 0.965885 0.009404 0.258801
  outer loop
   vertex 186.064651 238.628448 17.359447
   vertex 185.914795 244.063965 17.721228
   vertex 185.863693 238.628448 18.109455
  endloop
 endfacet
 facet normal 0.000000 1.000000 0.000000
  outer loop
   vertex 188.697830 256.628418 28.794872
   vertex 190.863693 256.628418 30.959805
   vertex 188.791901 256.628418 27.650669
  endloop
 endfacet
 facet normal -0.285450 0.865286 -0.412066
  outer loop
   vertex 150.363770 253.978943 18.779339
   vertex 147.483002 254.462219 21.789749
   vertex 151.078201 254.803955 20.016850
  endloop
 endfacet
 facet normal -0.285457 0.865281 -0.412072
  outer loop
   vertex 147.483002 254.462219 21.789749
   vertex 150.363770 253.978943 18.779339
   vertex 147.113174 254.035156 21.149181
  endloop
 endfacet
 facet normal -0.420799 0.499947 -0.756955
  outer loop
   vertex 147.696564 255.201904 22.159569
   vertex 151.078201 254.803955 20.016850
   vertex 147.483002 254.462219 21.789749
  endloop
 endfacet
 facet normal 0.000000 -1.000000 0.000000
  outer loop
   vertex 187.046707 251.248871 29.575371
   vertex 183.678802 251.248871 30.959812
   vertex 186.102859 251.248871 28.921818
  endloop
 endfacet
 facet normal 0.866033 0.000007 -0.499987
  outer loop
   vertex 149.566849 239.201904 17.399082
   vertex 148.363998 243.628433 15.315676
   vertex 149.649261 240.453949 17.541847
  endloop
 endfacet
 facet normal -0.535233 -0.000003 -0.844704
  outer loop
   vertex 151.078201 254.803955 20.016850
   vertex 147.696564 255.201904 22.159569
   vertex 151.078217 256.453979 20.016834
  endloop
 endfacet
 facet normal -0.535234 -0.000000 -0.844704
  outer loop
   vertex 147.696548 256.056000 22.159578
   vertex 151.078217 256.453979 20.016834
   vertex 147.696564 255.201904 22.159569
  endloop
 endfacet
 facet normal 0.000002 1.000000 0.000004
  outer loop
   vertex 177.045822 256.628418 30.959806
   vertex 186.029541 256.628418 27.423611
   vertex 177.045822 256.628479 15.338758
  endloop
 endfacet
 facet normal 0.000000 -1.000000 0.000000
  outer loop
   vertex 188.176254 251.248871 29.370090
   vertex 190.863693 251.248871 30.959812
   vertex 183.678802 251.248871 30.959812
  endloop
 endfacet
 facet normal 0.608765 0.000000 0.793351
  outer loop
   vertex 186.975433 244.063965 26.660360
   vertex 186.064636 238.628448 27.359245
   vertex 186.975433 238.628448 26.660360
  endloop
 endfacet
 facet normal 0.866028 -0.000022 -0.499996
  outer loop
   vertex 151.078217 256.453979 20.016834
   vertex 157.363754 259.628937 30.903681
   vertex 155.138367 257.219299 27.049263
  endloop
 endfacet
 facet normal 0.000000 1.000000 0.000000
  outer loop
   vertex 188.049316 256.628418 26.775112
   vertex 187.851120 256.628418 19.527912
   vertex 186.551086 256.628418 26.848406
  endloop
 endfacet
 facet normal 0.000001 -0.000010 1.000000
  outer loop
   vertex 172.863693 242.810547 30.959810
   vertex 190.863693 244.063965 30.959812
   vertex 180.626694 243.824509 30.959816
  endloop
 endfacet
 facet normal -0.317581 -0.706523 -0.632430
  outer loop
   vertex 151.078217 256.453979 20.016834
   vertex 147.696548 256.056000 22.159578
   vertex 150.776245 257.057892 19.493809
  endloop
 endfacet
 facet normal -1.000000 0.000019 0.000000
  outer loop
   vertex 172.863708 243.630188 30.959814
   vertex 172.863693 242.810547 15.338763
   vertex 172.863693 242.810547 30.959810
  endloop
 endfacet
 facet normal -0.396673 -0.608766 -0.687062
  outer loop
   vertex 150.776245 257.057892 19.493809
   vertex 147.696548 256.056000 22.159578
   vertex 147.312134 257.057892 21.493801
  endloop
 endfacet
 facet normal 0.000000 -1.000000 0.000000
  outer loop
   vertex 190.863678 238.628448 15.338760
   vertex 187.751892 238.628448 16.660557
   vertex 177.045822 238.628448 15.338758
  endloop
 endfacet
 facet normal -0.130526 0.000000 -0.991445
  outer loop
   vertex 187.751907 244.063965 29.558128
   vertex 187.751907 238.628448 29.558128
   vertex 187.363693 238.628448 29.609238
  endloop
 endfacet
 facet normal -0.129417 -0.965921 -0.224158
  outer loop
   vertex 147.312134 257.057892 21.493801
   vertex 150.363770 257.278961 18.779339
   vertex 150.776245 257.057892 19.493809
  endloop
 endfacet
 facet normal -0.129417 -0.965922 -0.224158
  outer loop
   vertex 150.363770 257.278961 18.779339
   vertex 147.312134 257.057892 21.493801
   vertex 146.899628 257.278961 20.779346
  endloop
 endfacet
 facet normal 0.129414 -0.965923 0.224153
  outer loop
   vertex 146.899628 257.278961 20.779346
   vertex 149.951248 257.057892 18.064871
   vertex 150.363770 257.278961 18.779339
  endloop
 endfacet
 facet normal 0.129415 -0.965923 0.224154
  outer loop
   vertex 149.951248 257.057892 18.064871
   vertex 146.899628 257.278961 20.779346
   vertex 146.487152 257.057892 20.064857
  endloop
 endfacet
 facet normal 0.608761 0.000001 0.793353
  outer loop
   vertex 186.064636 238.628448 27.359245
   vertex 186.975433 244.063965 26.660360
   vertex 186.064636 244.063965 27.359240
  endloop
 endfacet
 facet normal 0.000000 1.000000 0.000000
  outer loop
   vertex 190.863678 244.063965 15.338760
   vertex 188.662735 244.063965 17.359449
   vertex 190.863693 244.063965 30.959812
  endloop
 endfacet
 facet normal 0.353542 -0.707127 0.612356
  outer loop
   vertex 146.487152 257.057892 20.064857
   vertex 149.649261 256.453979 17.541845
   vertex 149.951248 257.057892 18.064871
  endloop
 endfacet
 facet normal -0.793219 -0.018644 -0.608651
  outer loop
   vertex 188.812576 244.063965 28.497461
   vertex 188.662735 238.628448 28.859238
   vertex 188.113693 244.063965 29.408276
  endloop
 endfacet
 facet normal 0.000000 1.000000 0.000000
  outer loop
   vertex 186.303024 244.063965 17.048779
   vertex 183.678787 244.063965 15.338761
   vertex 185.914795 244.063965 17.721228
  endloop
 endfacet
 facet normal -0.923727 0.018643 0.382596
  outer loop
   vertex 188.863678 238.628448 18.109455
   vertex 188.662735 244.063965 17.359449
   vertex 188.424362 238.628448 17.048786
  endloop
 endfacet
 facet normal 0.866025 0.000002 -0.500001
  outer loop
   vertex 150.776245 257.057892 19.493809
   vertex 157.363754 259.628937 30.903681
   vertex 151.078217 256.453979 20.016834
  endloop
 endfacet
 facet normal 0.420653 -0.608525 0.672866
  outer loop
   vertex 146.102737 256.056000 19.399092
   vertex 149.649261 256.453979 17.541845
   vertex 146.487152 257.057892 20.064857
  endloop
 endfacet
 facet normal 0.000000 0.000001 1.000000
  outer loop
   vertex 190.863693 256.628418 30.959805
   vertex 183.678802 251.248871 30.959812
   vertex 190.863693 251.248871 30.959812
  endloop
 endfacet
 facet normal 0.499806 0.027563 0.865699
  outer loop
   vertex 186.975449 244.063965 16.660542
   vertex 186.064651 238.628448 17.359447
   vertex 187.363693 238.628448 16.609453
  endloop
 endfacet
 facet normal 0.495721 -0.130516 0.858619
  outer loop
   vertex 149.649261 256.453979 17.541845
   vertex 146.102737 255.201904 19.399094
   vertex 149.566849 255.201904 17.399101
  endloop
 endfacet
 facet normal 0.463917 0.000002 0.885879
  outer loop
   vertex 146.102737 255.201904 19.399094
   vertex 149.649261 256.453979 17.541845
   vertex 146.102737 256.056000 19.399092
  endloop
 endfacet
 facet normal 0.866022 -0.000001 -0.500006
  outer loop
   vertex 155.138367 257.219299 27.049263
   vertex 157.363754 259.628937 30.903681
   vertex 155.938004 256.813171 28.434254
  endloop
 endfacet
 facet normal 0.000000 1.000000 0.000000
  outer loop
   vertex 186.029541 256.628418 27.423611
   vertex 186.119583 256.628418 18.947283
   vertex 185.891418 256.628418 17.822132
  endloop
 endfacet
 facet normal 0.522503 0.497166 0.692688
  outer loop
   vertex 149.566849 255.201904 17.399101
   vertex 146.686111 254.035156 20.409489
   vertex 149.780396 254.462219 17.768917
  endloop
 endfacet
 facet normal 0.353557 0.707097 0.612382
  outer loop
   vertex 146.686111 254.035156 20.409489
   vertex 149.566849 255.201904 17.399101
   vertex 146.102737 255.201904 19.399094
  endloop
 endfacet
 facet normal 0.167136 0.923521 0.345216
  outer loop
   vertex 149.780396 254.462219 17.768917
   vertex 146.686111 254.035156 20.409489
   vertex 150.363770 253.978943 18.779339
  endloop
 endfacet
 facet normal -0.000001 0.000019 -1.000000
  outer loop
   vertex 180.626694 243.824509 30.959816
   vertex 190.863693 244.063965 30.959812
   vertex 182.694382 243.715637 30.959812
  endloop
 endfacet
 facet normal 0.000000 -1.000000 0.000000
  outer loop
   vertex 188.863678 238.628448 18.109455
   vertex 188.863678 238.628448 28.109249
   vertex 188.424362 238.628448 19.170097
  endloop
 endfacet
 facet normal 0.000000 -1.000000 0.000000
  outer loop
   vertex 177.045822 256.628418 30.959806
   vertex 187.822235 256.628418 29.537434
   vertex 187.436996 256.628418 29.607445
  endloop
 endfacet
 facet normal -0.002273 0.010748 0.999940
  outer loop
   vertex 157.363556 251.628433 30.903572
   vertex 180.048584 251.192902 30.959827
   vertex 182.074036 251.622894 30.959810
  endloop
 endfacet
 facet normal 0.012169 0.999901 -0.007026
  outer loop
   vertex 147.113174 254.035156 21.149181
   vertex 150.363770 253.978943 18.779339
   vertex 146.686111 254.035156 20.409489
  endloop
 endfacet
 facet normal 0.866027 -0.000012 -0.499997
  outer loop
   vertex 150.363754 237.978958 18.779345
   vertex 148.363739 235.628967 15.315239
   vertex 149.780396 238.462234 17.768917
  endloop
 endfacet
 facet normal 0.000000 -1.000000 0.000000
  outer loop
   vertex 186.975464 238.628448 19.558327
   vertex 186.975433 238.628448 26.660360
   vertex 186.064636 238.628448 27.359245
  endloop
 endfacet
 facet normal 1.000000 -0.000003 -0.000000
  outer loop
   vertex 190.863693 256.628418 30.959805
   vertex 190.863678 251.248871 15.338760
   vertex 190.863693 256.628479 15.338764
  endloop
 endfacet
 facet normal -0.996461 -0.018834 -0.081924
  outer loop
   vertex 188.791901 256.628418 27.650669
   vertex 188.829819 251.248871 28.426197
   vertex 188.697830 256.628418 28.794872
  endloop
 endfacet
 facet normal 0.000000 -1.000000 0.000000
  outer loop
   vertex 188.424362 238.628448 19.170097
   vertex 186.975433 238.628448 26.660360
   vertex 187.751907 238.628448 19.558338
  endloop
 endfacet
 facet normal 0.333525 -0.942583 0.017299
  outer loop
   vertex 182.074020 251.622894 15.338758
   vertex 180.048584 251.192902 30.959827
   vertex 179.187912 250.601669 15.338757
  endloop
 endfacet
 facet normal -0.998805 0.000006 0.048874
  outer loop
   vertex 188.829819 251.248871 28.426197
   vertex 188.791901 256.628418 27.650669
   vertex 188.791870 251.248871 27.650673
  endloop
 endfacet
 facet normal 0.000696 -0.001965 -0.999998
  outer loop
   vertex 148.363770 251.627396 15.315286
   vertex 182.074020 251.622894 15.338758
   vertex 179.187912 250.601669 15.338757
  endloop
 endfacet
 facet normal 0.866028 -0.000020 -0.499995
  outer loop
   vertex 148.363770 251.627396 15.315286
   vertex 150.363770 253.978943 18.779339
   vertex 157.363556 251.628433 30.903572
  endloop
 endfacet
 facet normal 0.866025 -0.000002 -0.500001
  outer loop
   vertex 157.363739 235.628967 30.903690
   vertex 155.774963 238.197449 28.151852
   vertex 156.187469 239.626404 28.866325
  endloop
 endfacet
 facet normal 0.890823 0.453630 -0.025574
  outer loop
   vertex 177.869217 247.838760 30.959816
   vertex 178.890457 244.952637 15.338760
   vertex 177.950882 246.797745 15.338762
  endloop
 endfacet
 facet normal -0.991274 -0.018640 0.130496
  outer loop
   vertex 188.662735 244.063965 27.359236
   vertex 188.863678 238.628448 28.109249
   vertex 188.812576 244.063965 28.497461
  endloop
 endfacet
 facet normal -0.762657 0.000005 0.646804
  outer loop
   vertex 188.791901 256.628418 27.650669
   vertex 188.049316 251.248871 26.775116
   vertex 188.791870 251.248871 27.650673
  endloop
 endfacet
 facet normal -0.762643 0.000000 0.646819
  outer loop
   vertex 188.049316 251.248871 26.775116
   vertex 188.791901 256.628418 27.650669
   vertex 188.049316 256.628418 26.775112
  endloop
 endfacet
 facet normal 0.000046 -1.000000 0.000040
  outer loop
   vertex 148.363998 243.628433 15.315676
   vertex 172.863708 243.630188 30.959814
   vertex 157.363937 243.629471 30.903805
  endloop
 endfacet
 facet normal 0.048862 0.000001 0.998806
  outer loop
   vertex 188.049316 251.248871 26.775116
   vertex 188.049316 256.628418 26.775112
   vertex 186.551086 256.628418 26.848406
  endloop
 endfacet
 facet normal -0.081868 -0.036370 0.995979
  outer loop
   vertex 186.551086 256.628418 26.848406
   vertex 186.905121 251.248871 26.681065
   vertex 188.049316 251.248871 26.775116
  endloop
 endfacet
 facet normal 0.866026 -0.000042 -0.500000
  outer loop
   vertex 151.078201 240.453949 20.016850
   vertex 157.363937 243.629471 30.903805
   vertex 155.363754 241.128952 27.439594
  endloop
 endfacet
 facet normal 0.000000 0.000000 -1.000000
  outer loop
   vertex 190.863693 256.628479 15.338764
   vertex 172.863693 251.626587 15.338763
   vertex 172.863693 252.446304 15.338763
  endloop
 endfacet
 facet normal 0.000000 1.000000 0.000000
  outer loop
   vertex 188.791901 256.628418 27.650669
   vertex 188.835953 256.628418 18.396477
   vertex 187.851120 256.628418 19.527912
  endloop
 endfacet
 facet normal -0.002935 -0.001040 0.999995
  outer loop
   vertex 157.363556 251.628433 30.903572
   vertex 178.890457 244.952637 30.959812
   vertex 177.869217 247.838760 30.959816
  endloop
 endfacet
 facet normal 0.000000 -1.000000 0.000000
  outer loop
   vertex 188.113708 244.063965 16.810398
   vertex 183.678787 244.063965 15.338761
   vertex 187.751907 244.063965 16.660547
  endloop
 endfacet
 facet normal 0.740530 0.027848 0.671446
  outer loop
   vertex 186.551086 256.628418 26.848406
   vertex 185.897583 251.248871 27.792265
   vertex 186.905121 251.248871 26.681065
  endloop
 endfacet
 facet normal 0.740529 0.027849 0.671447
  outer loop
   vertex 185.897583 251.248871 27.792265
   vertex 186.551086 256.628418 26.848406
   vertex 186.029541 256.628418 27.423611
  endloop
 endfacet
 facet normal 0.866031 -0.000059 -0.499991
  outer loop
   vertex 155.363754 241.128952 27.439594
   vertex 157.363937 243.629471 30.903805
   vertex 155.774963 241.055344 28.151855
  endloop
 endfacet
 facet normal 1.000000 0.000000 -0.000001
  outer loop
   vertex 190.863678 244.063965 15.338760
   vertex 190.863693 238.628448 30.959812
   vertex 190.863678 238.628448 15.338760
  endloop
 endfacet
 facet normal -0.499809 -0.027557 -0.865697
  outer loop
   vertex 187.363708 244.063965 19.609442
   vertex 188.424362 238.628448 19.170097
   vertex 187.751907 238.628448 19.558338
  endloop
 endfacet
 facet normal 0.000770 -0.000145 -1.000000
  outer loop
   vertex 148.363770 251.627396 15.315286
   vertex 178.509537 249.807816 15.338755
   vertex 177.950882 246.797745 15.338762
  endloop
 endfacet
 facet normal 0.207667 -0.978200 -0.000000
  outer loop
   vertex 180.048584 251.192902 30.959827
   vertex 182.074020 251.622894 15.338758
   vertex 182.074036 251.622894 30.959810
  endloop
 endfacet
 facet normal 0.000000 -1.000000 0.000000
  outer loop
   vertex 187.751907 238.628448 19.558338
   vertex 186.975433 238.628448 26.660360
   vertex 186.975464 238.628448 19.558327
  endloop
 endfacet
 facet normal 0.866029 0.000016 -0.499993
  outer loop
   vertex 149.951263 241.057892 18.064869
   vertex 148.363998 243.628433 15.315676
   vertex 150.776245 241.057892 19.493805
  endloop
 endfacet
 facet normal 0.983234 -0.036363 -0.178686
  outer loop
   vertex 185.897583 251.248871 27.792265
   vertex 186.029541 256.628418 27.423611
   vertex 186.102859 251.248871 28.921818
  endloop
 endfacet
 facet normal 0.998805 0.000000 -0.048879
  outer loop
   vertex 186.102859 256.628418 28.921818
   vertex 186.102859 251.248871 28.921818
   vertex 186.029541 256.628418 27.423611
  endloop
 endfacet
 facet normal 0.000033 1.000000 -0.000063
  outer loop
   vertex 148.363770 251.627396 15.315286
   vertex 172.863693 251.627563 30.959810
   vertex 172.863693 251.626587 15.338763
  endloop
 endfacet
 facet normal 0.000056 1.000000 -0.000099
  outer loop
   vertex 172.863693 251.627563 30.959810
   vertex 148.363770 251.627396 15.315286
   vertex 157.363556 251.628433 30.903572
  endloop
 endfacet
 facet normal 0.000000 -1.000000 0.000000
  outer loop
   vertex 186.102859 251.248871 28.921818
   vertex 183.678802 251.248871 30.959812
   vertex 185.897583 251.248871 27.792265
  endloop
 endfacet
 facet normal 0.569281 0.000000 -0.822143
  outer loop
   vertex 186.102859 256.628418 28.921818
   vertex 187.046707 251.248871 29.575371
   vertex 186.102859 251.248871 28.921818
  endloop
 endfacet
 facet normal 0.671459 0.027844 -0.740519
  outer loop
   vertex 187.046707 251.248871 29.575371
   vertex 186.102859 256.628418 28.921818
   vertex 186.678055 256.628418 29.443371
  endloop
 endfacet
 facet normal 0.866028 -0.000000 -0.499996
  outer loop
   vertex 149.566849 255.201904 17.399101
   vertex 148.363770 251.627396 15.315286
   vertex 149.649261 256.453979 17.541845
  endloop
 endfacet
 facet normal 0.211297 -0.009502 -0.977376
  outer loop
   vertex 187.046707 251.248871 29.575371
   vertex 186.678055 256.628418 29.443371
   vertex 187.436996 256.628418 29.607445
  endloop
 endfacet
 facet normal -0.048871 0.009500 -0.998760
  outer loop
   vertex 187.436996 256.628418 29.607445
   vertex 187.822250 251.248871 29.537422
   vertex 187.046707 251.248871 29.575371
  endloop
 endfacet
 facet normal 0.866013 -0.000025 -0.500022
  outer loop
   vertex 149.649261 240.453949 17.541847
   vertex 148.363998 243.628433 15.315676
   vertex 149.951263 241.057892 18.064869
  endloop
 endfacet
 facet normal 0.942723 0.333578 0.000000
  outer loop
   vertex 178.890457 244.952637 15.338760
   vertex 177.869217 247.838760 30.959816
   vertex 178.890457 244.952637 30.959812
  endloop
 endfacet
 facet normal -0.178806 0.000002 -0.983884
  outer loop
   vertex 187.822250 251.248871 29.537422
   vertex 187.436996 256.628418 29.607445
   vertex 187.822235 256.628418 29.537434
  endloop
 endfacet
 facet normal -0.427347 0.000001 -0.904088
  outer loop
   vertex 187.822235 256.628418 29.537434
   vertex 188.176254 251.248871 29.370090
   vertex 187.822250 251.248871 29.537422
  endloop
 endfacet
 facet normal 0.866023 -0.000001 -0.500005
  outer loop
   vertex 150.363770 253.978943 18.779339
   vertex 148.363770 251.627396 15.315286
   vertex 149.780396 254.462219 17.768917
  endloop
 endfacet
 facet normal -0.821608 -0.036372 -0.568892
  outer loop
   vertex 187.822235 256.628418 29.537434
   vertex 188.829819 251.248871 28.426197
   vertex 188.176254 251.248871 29.370090
  endloop
 endfacet
 facet normal -0.646363 0.036374 -0.762162
  outer loop
   vertex 188.829819 251.248871 28.426197
   vertex 187.822235 256.628418 29.537434
   vertex 188.697830 256.628418 28.794872
  endloop
 endfacet
 facet normal 0.000000 -1.000000 0.000000
  outer loop
   vertex 186.303024 238.628448 19.170101
   vertex 186.064651 238.628448 28.859232
   vertex 185.863693 238.628448 18.109455
  endloop
 endfacet
 facet normal 0.000000 -1.000000 0.000000
  outer loop
   vertex 190.863693 238.628448 30.959812
   vertex 188.662735 238.628448 28.859238
   vertex 190.863678 238.628448 15.338760
  endloop
 endfacet
 facet normal 0.000374 0.933623 -0.358257
  outer loop
   vertex 182.074020 251.622894 15.338758
   vertex 148.363770 251.627396 15.315286
   vertex 172.863693 251.626587 15.338763
  endloop
 endfacet
 facet normal 0.324946 -0.009499 0.945685
  outer loop
   vertex 186.876266 251.248871 16.690708
   vertex 187.260025 256.628418 16.612883
   vertex 186.525726 256.628418 16.865194
  endloop
 endfacet
 facet normal 0.558629 0.009501 0.829363
  outer loop
   vertex 186.525726 256.628418 16.865194
   vertex 186.232269 251.248871 17.124481
   vertex 186.876266 251.248871 16.690708
  endloop
 endfacet
 facet normal 0.866024 -0.000013 -0.500002
  outer loop
   vertex 155.159256 254.032013 27.085432
   vertex 151.078201 254.803955 20.016850
   vertex 151.078217 256.453979 20.016834
  endloop
 endfacet
 facet normal 0.000000 -1.000000 0.000000
  outer loop
   vertex 186.064651 238.628448 28.859232
   vertex 177.045822 238.628448 30.959827
   vertex 185.863693 238.628448 18.109455
  endloop
 endfacet
 facet normal 0.866019 -0.000013 -0.500011
  outer loop
   vertex 149.649261 256.453979 17.541845
   vertex 148.363739 259.628937 15.315236
   vertex 149.951248 257.057892 18.064871
  endloop
 endfacet
 facet normal 0.833367 -0.018836 0.552399
  outer loop
   vertex 185.891418 256.628418 17.822132
   vertex 186.232269 251.248871 17.124481
   vertex 186.525726 256.628418 16.865194
  endloop
 endfacet
 facet normal 0.947944 0.018838 0.317879
  outer loop
   vertex 186.232269 251.248871 17.124481
   vertex 185.891418 256.628418 17.822132
   vertex 185.867264 251.248871 18.212959
  endloop
 endfacet
 facet normal -0.866022 -0.000027 0.500005
  outer loop
   vertex 157.363556 251.628433 30.903572
   vertex 148.363998 243.628433 15.315676
   vertex 157.363937 243.629471 30.903805
  endloop
 endfacet
 facet normal -1.000000 0.000000 0.000000
  outer loop
   vertex 172.863693 251.626587 15.338763
   vertex 172.863693 252.446304 30.959812
   vertex 172.863693 252.446304 15.338763
  endloop
 endfacet
 facet normal -0.707104 -0.707109 0.000000
  outer loop
   vertex 172.863693 242.810547 30.959810
   vertex 177.045822 238.628448 15.338758
   vertex 177.045822 238.628448 30.959827
  endloop
 endfacet
 facet normal -0.000503 -0.992368 0.123310
  outer loop
   vertex 157.363556 251.628433 30.903572
   vertex 182.074036 251.622894 30.959810
   vertex 172.863693 251.627563 30.959810
  endloop
 endfacet
 facet normal 0.979878 -0.018836 -0.198705
  outer loop
   vertex 186.119583 256.628418 18.947283
   vertex 185.867264 251.248871 18.212959
   vertex 185.891418 256.628418 17.822132
  endloop
 endfacet
 facet normal 0.828828 0.037329 -0.558257
  outer loop
   vertex 185.867264 251.248871 18.212959
   vertex 186.119583 256.628418 18.947283
   vertex 186.705231 251.248871 19.457066
  endloop
 endfacet
 facet normal 0.552381 -0.018838 -0.833379
  outer loop
   vertex 187.076523 256.628418 19.581562
   vertex 186.705231 251.248871 19.457066
   vertex 186.119583 256.628418 18.947283
  endloop
 endfacet
 facet normal -0.707106 0.707108 0.000000
  outer loop
   vertex 177.045822 256.628418 30.959806
   vertex 172.863693 252.446304 15.338763
   vertex 172.863693 252.446304 30.959812
  endloop
 endfacet
 facet normal 0.000001 0.000000 1.000000
  outer loop
   vertex 190.863693 244.063965 30.959812
   vertex 177.045822 238.628448 30.959827
   vertex 190.863693 238.628448 30.959812
  endloop
 endfacet
 facet normal 0.000000 1.000000 0.000000
  outer loop
   vertex 177.045822 256.628418 30.959806
   vertex 186.678055 256.628418 29.443371
   vertex 186.102859 256.628418 28.921818
  endloop
 endfacet
 facet normal 0.191438 0.009501 -0.981459
  outer loop
   vertex 187.076523 256.628418 19.581562
   vertex 187.467331 251.248871 19.605717
   vertex 186.705231 251.248871 19.457066
  endloop
 endfacet
 facet normal 0.000000 1.000000 0.000000
  outer loop
   vertex 177.045822 256.628418 30.959806
   vertex 187.436996 256.628418 29.607445
   vertex 186.678055 256.628418 29.443371
  endloop
 endfacet
 facet normal 0.865992 -0.009402 0.499969
  outer loop
   vertex 185.914795 244.063965 17.721228
   vertex 186.064651 238.628448 17.359447
   vertex 186.303024 244.063965 17.048779
  endloop
 endfacet
 facet normal 0.923720 0.018645 -0.382615
  outer loop
   vertex 185.863693 238.628448 18.109455
   vertex 186.064636 244.063965 18.859455
   vertex 186.303024 238.628448 19.170101
  endloop
 endfacet
 facet normal -0.865438 0.036950 0.499652
  outer loop
   vertex 188.863678 238.628448 28.109249
   vertex 188.662735 244.063965 27.359236
   vertex 188.113693 238.628448 26.810213
  endloop
 endfacet
 facet normal -0.069093 -0.009499 -0.997565
  outer loop
   vertex 187.467331 251.248871 19.605717
   vertex 187.076523 256.628418 19.581562
   vertex 187.851120 256.628418 19.527912
  endloop
 endfacet
 facet normal -0.445535 0.018840 -0.895066
  outer loop
   vertex 187.851120 256.628418 19.527912
   vertex 188.495102 251.248871 19.094126
   vertex 187.467331 251.248871 19.605717
  endloop
 endfacet
 facet normal 0.499808 0.027559 -0.865698
  outer loop
   vertex 187.363693 238.628448 29.609238
   vertex 186.303024 244.063965 29.169901
   vertex 186.975449 244.063965 29.558123
  endloop
 endfacet
 facet normal 0.866022 -0.000021 -0.500005
  outer loop
   vertex 157.363739 235.628967 30.903690
   vertex 151.078201 238.803955 20.016850
   vertex 155.148956 238.032608 27.067532
  endloop
 endfacet
 facet normal 0.866024 0.000000 -0.500003
  outer loop
   vertex 151.078201 240.453949 20.016850
   vertex 155.363754 241.128952 27.439594
   vertex 151.078201 238.803955 20.016850
  endloop
 endfacet
 facet normal 0.000000 1.000000 0.000000
  outer loop
   vertex 187.751907 238.628448 29.558128
   vertex 177.045822 238.628448 30.959827
   vertex 187.363693 238.628448 29.609238
  endloop
 endfacet
 facet normal 0.000000 -1.000000 0.000000
  outer loop
   vertex 187.363693 238.628448 29.609238
   vertex 177.045822 238.628448 30.959827
   vertex 186.064651 238.628448 28.859232
  endloop
 endfacet
 facet normal -0.947952 0.018841 -0.317857
  outer loop
   vertex 188.495102 251.248871 19.094126
   vertex 188.835953 256.628418 18.396477
   vertex 188.860077 251.248871 18.005651
  endloop
 endfacet
 facet normal -0.753758 -0.037327 -0.656092
  outer loop
   vertex 188.835953 256.628418 18.396477
   vertex 188.495102 251.248871 19.094126
   vertex 187.851120 256.628418 19.527912
  endloop
 endfacet
 facet normal 0.001159 0.001784 -0.999998
  outer loop
   vertex 148.363770 251.627396 15.315286
   vertex 178.890457 244.952637 15.338760
   vertex 180.626694 243.824509 15.338760
  endloop
 endfacet
 facet normal -0.997562 -0.009496 0.069131
  outer loop
   vertex 188.782272 256.628418 17.621870
   vertex 188.860077 251.248871 18.005651
   vertex 188.835953 256.628418 18.396477
  endloop
 endfacet
 facet normal 0.000000 1.000000 0.000000
  outer loop
   vertex 185.914795 244.063965 17.721228
   vertex 183.678787 244.063965 15.338761
   vertex 185.863693 244.063965 28.109238
  endloop
 endfacet
 facet normal 0.000000 -1.000000 0.000000
  outer loop
   vertex 188.424362 238.628448 17.048786
   vertex 190.863678 238.628448 15.338760
   vertex 188.863678 238.628448 18.109455
  endloop
 endfacet
 facet normal -0.000001 0.000002 1.000000
  outer loop
   vertex 183.678802 251.248871 30.959812
   vertex 190.863693 256.628418 30.959805
   vertex 182.074036 251.622894 30.959810
  endloop
 endfacet
 facet normal 0.000866 0.000442 -1.000000
  outer loop
   vertex 148.363770 251.627396 15.315286
   vertex 177.950882 246.797745 15.338762
   vertex 178.890457 244.952637 15.338760
  endloop
 endfacet
 facet normal -0.829409 0.000000 0.558641
  outer loop
   vertex 188.860077 251.248871 18.005651
   vertex 188.022125 256.628418 16.761553
   vertex 188.022125 251.248871 16.761553
  endloop
 endfacet
 facet normal -0.748891 0.036375 0.661694
  outer loop
   vertex 188.022125 256.628418 16.761553
   vertex 188.860077 251.248871 18.005651
   vertex 188.782272 256.628418 17.621870
  endloop
 endfacet
 facet normal 0.052581 0.998617 0.000000
  outer loop
   vertex 182.694382 243.715637 30.959812
   vertex 180.626694 243.824509 15.338760
   vertex 180.626694 243.824509 30.959816
  endloop
 endfacet
 facet normal -0.000000 -0.000005 1.000000
  outer loop
   vertex 172.863693 242.810547 30.959810
   vertex 180.626694 243.824509 30.959816
   vertex 172.863708 243.630188 30.959814
  endloop
 endfacet
 facet normal -0.061709 0.000000 0.998094
  outer loop
   vertex 188.022125 256.628418 16.761553
   vertex 186.876266 251.248871 16.690708
   vertex 188.022125 251.248871 16.761553
  endloop
 endfacet
 facet normal -0.191396 0.027847 0.981118
  outer loop
   vertex 186.876266 251.248871 16.690708
   vertex 188.022125 256.628418 16.761553
   vertex 187.260025 256.628418 16.612883
  endloop
 endfacet
 facet normal -0.078356 -0.996579 -0.026276
  outer loop
   vertex 182.074020 251.622894 15.338758
   vertex 186.232269 251.248871 17.124481
   vertex 185.867264 251.248871 18.212959
  endloop
 endfacet
 facet normal 0.000000 -1.000000 0.000000
  outer loop
   vertex 188.022125 251.248871 16.761553
   vertex 190.863678 251.248871 15.338760
   vertex 188.860077 251.248871 18.005651
  endloop
 endfacet
 facet normal 0.000000 -1.000000 0.000000
  outer loop
   vertex 177.045822 238.628448 15.338758
   vertex 186.064651 238.628448 17.359447
   vertex 185.863693 238.628448 18.109455
  endloop
 endfacet
 facet normal 0.866028 0.000008 -0.499996
  outer loop
   vertex 155.159256 254.032013 27.085432
   vertex 151.078217 256.453979 20.016834
   vertex 154.568298 255.183350 26.061872
  endloop
 endfacet
 facet normal 0.000000 1.000000 0.000000
  outer loop
   vertex 187.751907 244.063965 26.660357
   vertex 186.064636 244.063965 18.859455
   vertex 186.975433 244.063965 26.660360
  endloop
 endfacet
 facet normal -0.000007 -0.009399 0.999956
  outer loop
   vertex 187.363693 238.628448 16.609453
   vertex 187.751907 244.063965 16.660547
   vertex 186.975449 244.063965 16.660542
  endloop
 endfacet
 facet normal -0.130517 0.000002 0.991446
  outer loop
   vertex 187.751907 244.063965 16.660547
   vertex 187.363693 238.628448 16.609453
   vertex 187.751892 238.628448 16.660557
  endloop
 endfacet
 facet normal -0.000015 1.000000 0.000013
  outer loop
   vertex 188.782272 256.628418 17.621870
   vertex 190.863693 256.628479 15.338764
   vertex 188.022125 256.628418 16.761553
  endloop
 endfacet
 facet normal -0.499957 0.009407 0.865999
  outer loop
   vertex 188.113708 244.063965 16.810398
   vertex 187.751892 238.628448 16.660557
   vertex 188.424362 238.628448 17.048786
  endloop
 endfacet
 facet normal -0.382657 0.000003 0.923890
  outer loop
   vertex 187.751892 238.628448 16.660557
   vertex 188.113708 244.063965 16.810398
   vertex 187.751907 244.063965 16.660547
  endloop
 endfacet
 facet normal 0.544844 0.838538 0.000000
  outer loop
   vertex 178.890457 244.952637 15.338760
   vertex 180.626694 243.824509 30.959816
   vertex 180.626694 243.824509 15.338760
  endloop
 endfacet
 facet normal -0.707092 -0.009402 0.707060
  outer loop
   vertex 188.424362 238.628448 17.048786
   vertex 188.662735 244.063965 17.359449
   vertex 188.113708 244.063965 16.810398
  endloop
 endfacet
 facet normal 0.991274 -0.018640 -0.130496
  outer loop
   vertex 186.064636 244.063965 18.859455
   vertex 185.863693 238.628448 18.109455
   vertex 185.914795 244.063965 17.721228
  endloop
 endfacet
endsolid
