solid stl file generated from AC3D
 facet normal -0.995259 0.000000 -0.097260
  outer loop
   vertex 2.157694 -0.062386 0.000000
   vertex 1.200001 -0.900000 9.800000
   vertex 2.157694 26.862387 0.000000
  endloop
 endfacet
 facet normal -0.995259 0.000000 -0.097260
  outer loop
   vertex 2.157694 26.862387 0.000000
   vertex 1.200001 -0.900000 9.800000
   vertex 1.200001 27.700001 9.800000
  endloop
 endfacet
 facet normal 0.000000 -0.996367 -0.085160
  outer loop
   vertex 1.200001 -0.900000 9.800000
   vertex 2.157694 -0.062386 0.000000
   vertex 32.942314 -0.062386 0.000000
  endloop
 endfacet
 facet normal 0.000000 -0.996367 -0.085160
  outer loop
   vertex 33.900002 -0.900000 9.800000
   vertex 1.200001 -0.900000 9.800000
   vertex 32.942314 -0.062386 0.000000
  endloop
 endfacet
 facet normal 0.000000 0.000000 -1.000000
  outer loop
   vertex 2.157694 -0.062386 0.000000
   vertex 2.157694 26.862387 0.000000
   vertex 32.942314 -0.062386 0.000000
  endloop
 endfacet
 facet normal 0.000000 0.000000 -1.000000
  outer loop
   vertex 32.942314 -0.062386 0.000000
   vertex 2.157694 26.862387 0.000000
   vertex 32.942314 26.862387 0.000000
  endloop
 endfacet
 facet normal 0.000000 0.996367 -0.085160
  outer loop
   vertex 2.157694 26.862387 0.000000
   vertex 1.200001 27.700001 9.800000
   vertex 32.942314 26.862387 0.000000
  endloop
 endfacet
 facet normal 0.000000 0.996367 -0.085160
  outer loop
   vertex 32.942314 26.862387 0.000000
   vertex 1.200001 27.700001 9.800000
   vertex 33.900002 27.700001 9.800000
  endloop
 endfacet
 facet normal 0.000000 0.000000 1.000000
  outer loop
   vertex 3.200001 1.100000 9.800000
   vertex 1.200001 -0.900000 9.800000
   vertex 33.900002 -0.900000 9.800000
  endloop
 endfacet
 facet normal 0.000000 0.000000 1.000000
  outer loop
   vertex 1.200001 27.700001 9.800000
   vertex 1.200001 -0.900000 9.800000
   vertex 3.200001 1.100000 9.800000
  endloop
 endfacet
 facet normal 0.000000 0.000000 1.000000
  outer loop
   vertex 3.200001 25.700001 9.800000
   vertex 31.900002 25.700001 9.800000
   vertex 1.200001 27.700001 9.800000
  endloop
 endfacet
 facet normal 0.000000 0.000000 1.000000
  outer loop
   vertex 1.200001 27.700001 9.800000
   vertex 3.200001 1.100000 9.800000
   vertex 3.200001 25.700001 9.800000
  endloop
 endfacet
 facet normal 0.000000 0.000000 1.000000
  outer loop
   vertex 33.900002 27.700001 9.800000
   vertex 31.900002 25.700001 9.800000
   vertex 33.900002 -0.900000 9.800000
  endloop
 endfacet
 facet normal 0.000000 0.000000 1.000000
  outer loop
   vertex 33.900002 27.700001 9.800000
   vertex 1.200001 27.700001 9.800000
   vertex 31.900002 25.700001 9.800000
  endloop
 endfacet
 facet normal 0.000000 0.000000 1.000000
  outer loop
   vertex 31.900002 25.700001 9.800000
   vertex 31.900002 1.100000 9.800000
   vertex 33.900002 -0.900000 9.800000
  endloop
 endfacet
 facet normal 0.000000 0.000000 1.000000
  outer loop
   vertex 31.900002 1.100000 9.800000
   vertex 3.200001 1.100000 9.800000
   vertex 33.900002 -0.900000 9.800000
  endloop
 endfacet
 facet normal 0.995259 0.000000 -0.097260
  outer loop
   vertex 33.900002 -0.900000 9.800000
   vertex 32.942314 -0.062386 0.000000
   vertex 32.942314 26.862387 0.000000
  endloop
 endfacet
 facet normal 0.995259 0.000000 -0.097260
  outer loop
   vertex 33.900002 27.700001 9.800000
   vertex 33.900002 -0.900000 9.800000
   vertex 32.942314 26.862387 0.000000
  endloop
 endfacet
 facet normal 1.000000 0.000000 0.000000
  outer loop
   vertex 3.200001 25.700001 5.800000
   vertex 3.200001 25.700001 9.800000
   vertex 3.200001 1.100000 9.800000
  endloop
 endfacet
 facet normal 1.000000 0.000000 0.000000
  outer loop
   vertex 3.200001 1.100000 5.800000
   vertex 3.200001 25.700001 5.800000
   vertex 3.200001 1.100000 9.800000
  endloop
 endfacet
 facet normal 0.000000 1.000000 0.000000
  outer loop
   vertex 31.900002 1.100000 9.800000
   vertex 31.900002 1.100000 5.800000
   vertex 3.200001 1.100000 9.800000
  endloop
 endfacet
 facet normal 0.000000 1.000000 0.000000
  outer loop
   vertex 3.200001 1.100000 9.800000
   vertex 31.900002 1.100000 5.800000
   vertex 3.200001 1.100000 5.800000
  endloop
 endfacet
 facet normal -1.000000 0.000000 0.000000
  outer loop
   vertex 31.900002 25.700001 9.800000
   vertex 31.900002 25.700001 5.800000
   vertex 31.900002 1.100000 9.800000
  endloop
 endfacet
 facet normal -1.000000 0.000000 0.000000
  outer loop
   vertex 31.900002 1.100000 9.800000
   vertex 31.900002 25.700001 5.800000
   vertex 31.900002 1.100000 5.800000
  endloop
 endfacet
 facet normal 0.000000 -1.000000 0.000000
  outer loop
   vertex 31.900002 25.700001 5.800000
   vertex 31.900002 25.700001 9.800000
   vertex 3.200001 25.700001 9.800000
  endloop
 endfacet
 facet normal 0.000000 -1.000000 0.000000
  outer loop
   vertex 3.200001 25.700001 5.800000
   vertex 31.900002 25.700001 5.800000
   vertex 3.200001 25.700001 9.800000
  endloop
 endfacet
 facet normal 0.000000 0.000000 1.000000
  outer loop
   vertex 20.500000 22.400000 5.800000
   vertex 31.900002 25.700001 5.800000
   vertex 3.200001 25.700001 5.800000
  endloop
 endfacet
 facet normal 0.000000 0.000000 1.000000
  outer loop
   vertex 7.900001 10.800000 5.800000
   vertex 31.900002 1.100000 5.800000
   vertex 3.200001 25.700001 5.800000
  endloop
 endfacet
 facet normal 0.000000 0.000000 1.000000
  outer loop
   vertex 3.200001 1.100000 5.800000
   vertex 6.200001 10.800000 5.800000
   vertex 3.200001 25.700001 5.800000
  endloop
 endfacet
 facet normal 0.000000 0.000000 1.000000
  outer loop
   vertex 6.200001 10.800000 5.800000
   vertex 7.900001 10.800000 5.800000
   vertex 3.200001 25.700001 5.800000
  endloop
 endfacet
 facet normal 0.000000 0.000000 1.000000
  outer loop
   vertex 25.700001 18.300001 5.800000
   vertex 20.500000 18.300001 5.800000
   vertex 31.900002 1.100000 5.800000
  endloop
 endfacet
 facet normal 0.000000 0.000000 1.000000
  outer loop
   vertex 3.200001 1.100000 5.800000
   vertex 31.900002 1.100000 5.800000
   vertex 7.900001 5.100000 5.800000
  endloop
 endfacet
 facet normal 0.000000 0.000000 1.000000
  outer loop
   vertex 3.200001 1.100000 5.800000
   vertex 6.200001 5.100000 5.800000
   vertex 6.200001 10.800000 5.800000
  endloop
 endfacet
 facet normal 0.000000 0.000000 1.000000
  outer loop
   vertex 3.200001 1.100000 5.800000
   vertex 7.900001 5.100000 5.800000
   vertex 6.200001 5.100000 5.800000
  endloop
 endfacet
 facet normal 0.000000 0.000000 1.000000
  outer loop
   vertex 20.500000 18.300001 5.800000
   vertex 20.500000 22.400000 5.800000
   vertex 3.200001 25.700001 5.800000
  endloop
 endfacet
 facet normal 0.000000 0.000000 1.000000
  outer loop
   vertex 25.700001 22.400000 5.800000
   vertex 31.900002 25.700001 5.800000
   vertex 20.500000 22.400000 5.800000
  endloop
 endfacet
 facet normal 0.000000 0.000000 1.000000
  outer loop
   vertex 31.900002 1.100000 5.800000
   vertex 31.900002 25.700001 5.800000
   vertex 25.700001 22.400000 5.800000
  endloop
 endfacet
 facet normal 0.000000 0.000000 1.000000
  outer loop
   vertex 31.900002 1.100000 5.800000
   vertex 25.700001 22.400000 5.800000
   vertex 25.700001 18.300001 5.800000
  endloop
 endfacet
 facet normal 0.000000 0.000000 1.000000
  outer loop
   vertex 31.900002 1.100000 5.800000
   vertex 20.500000 18.300001 5.800000
   vertex 3.200001 25.700001 5.800000
  endloop
 endfacet
 facet normal 0.000000 0.000000 1.000000
  outer loop
   vertex 7.900001 10.800000 5.800000
   vertex 7.900001 5.100000 5.800000
   vertex 31.900002 1.100000 5.800000
  endloop
 endfacet
 facet normal 1.000000 0.000000 0.000000
  outer loop
   vertex 6.200001 10.800000 3.400000
   vertex 6.200001 10.800000 5.800000
   vertex 6.200001 5.100000 5.800000
  endloop
 endfacet
 facet normal 1.000000 0.000000 0.000000
  outer loop
   vertex 6.200001 5.100000 3.400000
   vertex 6.200001 10.800000 3.400000
   vertex 6.200001 5.100000 5.800000
  endloop
 endfacet
 facet normal 0.000000 -1.000000 0.000000
  outer loop
   vertex 7.900001 10.800000 3.400000
   vertex 7.900001 10.800000 5.800000
   vertex 6.200001 10.800000 5.800000
  endloop
 endfacet
 facet normal 0.000000 -1.000000 0.000000
  outer loop
   vertex 6.200001 10.800000 3.400000
   vertex 7.900001 10.800000 3.400000
   vertex 6.200001 10.800000 5.800000
  endloop
 endfacet
 facet normal 0.000000 1.000000 0.000000
  outer loop
   vertex 7.900001 5.100000 5.800000
   vertex 7.900001 5.100000 3.400000
   vertex 6.200001 5.100000 5.800000
  endloop
 endfacet
 facet normal 0.000000 1.000000 0.000000
  outer loop
   vertex 6.200001 5.100000 5.800000
   vertex 7.900001 5.100000 3.400000
   vertex 6.200001 5.100000 3.400000
  endloop
 endfacet
 facet normal -1.000000 0.000000 0.000000
  outer loop
   vertex 7.900001 10.800000 5.800000
   vertex 7.900001 10.800000 3.400000
   vertex 7.900001 5.100000 5.800000
  endloop
 endfacet
 facet normal -1.000000 0.000000 0.000000
  outer loop
   vertex 7.900001 5.100000 5.800000
   vertex 7.900001 10.800000 3.400000
   vertex 7.900001 5.100000 3.400000
  endloop
 endfacet
 facet normal 1.000000 0.000000 0.000000
  outer loop
   vertex 20.500000 22.400000 2.000000
   vertex 20.500000 22.400000 5.800000
   vertex 20.500000 18.300001 5.800000
  endloop
 endfacet
 facet normal 1.000000 0.000000 0.000000
  outer loop
   vertex 20.500000 18.300001 2.000000
   vertex 20.500000 22.400000 2.000000
   vertex 20.500000 18.300001 5.800000
  endloop
 endfacet
 facet normal 0.000000 -1.000000 0.000000
  outer loop
   vertex 25.700001 22.400000 2.000000
   vertex 25.700001 22.400000 5.800000
   vertex 20.500000 22.400000 5.800000
  endloop
 endfacet
 facet normal 0.000000 -1.000000 0.000000
  outer loop
   vertex 20.500000 22.400000 2.000000
   vertex 25.700001 22.400000 2.000000
   vertex 20.500000 22.400000 5.800000
  endloop
 endfacet
 facet normal 0.000000 1.000000 0.000000
  outer loop
   vertex 25.700001 18.300001 5.800000
   vertex 25.700001 18.300001 2.000000
   vertex 20.500000 18.300001 5.800000
  endloop
 endfacet
 facet normal 0.000000 1.000000 0.000000
  outer loop
   vertex 20.500000 18.300001 5.800000
   vertex 25.700001 18.300001 2.000000
   vertex 20.500000 18.300001 2.000000
  endloop
 endfacet
 facet normal -1.000000 0.000000 0.000000
  outer loop
   vertex 25.700001 22.400000 5.800000
   vertex 25.700001 22.400000 2.000000
   vertex 25.700001 18.300001 5.800000
  endloop
 endfacet
 facet normal -1.000000 0.000000 0.000000
  outer loop
   vertex 25.700001 18.300001 5.800000
   vertex 25.700001 22.400000 2.000000
   vertex 25.700001 18.300001 2.000000
  endloop
 endfacet
 facet normal 0.000000 0.000000 1.000000
  outer loop
   vertex 7.900001 5.100000 3.400000
   vertex 7.900001 10.800000 3.400000
   vertex 6.200001 10.800000 3.400000
  endloop
 endfacet
 facet normal 0.000000 0.000000 1.000000
  outer loop
   vertex 6.200001 5.100000 3.400000
   vertex 7.900001 5.100000 3.400000
   vertex 6.200001 10.800000 3.400000
  endloop
 endfacet
 facet normal 0.000000 0.000000 1.000000
  outer loop
   vertex 25.700001 18.300001 2.000000
   vertex 25.700001 22.400000 2.000000
   vertex 20.500000 22.400000 2.000000
  endloop
 endfacet
 facet normal 0.000000 0.000000 1.000000
  outer loop
   vertex 20.500000 18.300001 2.000000
   vertex 25.700001 18.300001 2.000000
   vertex 20.500000 22.400000 2.000000
  endloop
 endfacet
endsolid
