solid OpenSCAD_Model
  facet normal -1 0 0
    outer loop
      vertex -45 30.2 1.5
      vertex -45 33.2 -1.5
      vertex -45 -30.2 1.5
    endloop
  endfacet
  facet normal -1 0 0
    outer loop
      vertex -45 -33.2 -1.5
      vertex -45 -33.2 17.5
      vertex -45 -30.2 1.5
    endloop
  endfacet
  facet normal -1 0 0
    outer loop
      vertex -45 -33.2 -1.5
      vertex -45 -30.2 1.5
      vertex -45 33.2 -1.5
    endloop
  endfacet
  facet normal -1 0 0
    outer loop
      vertex -45 33.2 -1.5
      vertex -45 30.2 1.5
      vertex -45 30.2 17.5
    endloop
  endfacet
  facet normal -1 0 0
    outer loop
      vertex -45 33.2 -1.5
      vertex -45 30.2 17.5
      vertex -45 33.2 17.5
    endloop
  endfacet
  facet normal -1 0 0
    outer loop
      vertex -45 -30.2 1.5
      vertex -45 -33.2 17.5
      vertex -45 -30.2 17.5
    endloop
  endfacet
  facet normal 0 -1 0
    outer loop
      vertex -45 -33.2 17.5
      vertex -45 -33.2 -1.5
      vertex 45 -33.2 -1.5
    endloop
  endfacet
  facet normal 0 -1 0
    outer loop
      vertex 45 -33.2 17.5
      vertex -45 -33.2 17.5
      vertex 45 -33.2 -1.5
    endloop
  endfacet
  facet normal 0 0 -1
    outer loop
      vertex -40.7865 27.8817 -1.5
      vertex -45 33.2 -1.5
      vertex 45 -33.2 -1.5
    endloop
  endfacet
  facet normal 0 0 -1
    outer loop
      vertex 41.1183 28.2135 -1.5
      vertex -45 33.2 -1.5
      vertex 45 33.2 -1.5
    endloop
  endfacet
  facet normal 0 0 -1
    outer loop
      vertex -45 -33.2 -1.5
      vertex -45 33.2 -1.5
      vertex -43.5 -27 -1.5
    endloop
  endfacet
  facet normal 0 0 -1
    outer loop
      vertex -45 -33.2 -1.5
      vertex -43.5 -27 -1.5
      vertex -43.4266 -27.4635 -1.5
    endloop
  endfacet
  facet normal 0 0 -1
    outer loop
      vertex -45 -33.2 -1.5
      vertex -43.4266 -27.4635 -1.5
      vertex -43.2135 -27.8817 -1.5
    endloop
  endfacet
  facet normal 0 0 -1
    outer loop
      vertex -45 -33.2 -1.5
      vertex -43.2135 -27.8817 -1.5
      vertex -42.8817 -28.2135 -1.5
    endloop
  endfacet
  facet normal 0 0 -1
    outer loop
      vertex -45 -33.2 -1.5
      vertex -42.8817 -28.2135 -1.5
      vertex -42.4635 -28.4266 -1.5
    endloop
  endfacet
  facet normal 0 0 -1
    outer loop
      vertex -45 -33.2 -1.5
      vertex -42.4635 -28.4266 -1.5
      vertex -42 -28.5 -1.5
    endloop
  endfacet
  facet normal 0 0 -1
    outer loop
      vertex -45 -33.2 -1.5
      vertex -42 -28.5 -1.5
      vertex 45 -33.2 -1.5
    endloop
  endfacet
  facet normal 0 0 -1
    outer loop
      vertex -41.1183 -28.2135 -1.5
      vertex 45 -33.2 -1.5
      vertex -41.5365 -28.4266 -1.5
    endloop
  endfacet
  facet normal 0 0 -1
    outer loop
      vertex -40.7865 -27.8817 -1.5
      vertex 45 -33.2 -1.5
      vertex -41.1183 -28.2135 -1.5
    endloop
  endfacet
  facet normal 0 0 -1
    outer loop
      vertex -40.5734 -27.4635 -1.5
      vertex 45 -33.2 -1.5
      vertex -40.7865 -27.8817 -1.5
    endloop
  endfacet
  facet normal 0 0 -1
    outer loop
      vertex -40.5 -27 -1.5
      vertex 45 -33.2 -1.5
      vertex -40.5734 -27.4635 -1.5
    endloop
  endfacet
  facet normal 0 0 -1
    outer loop
      vertex -40.5734 -26.5365 -1.5
      vertex -45 33.2 -1.5
      vertex -40.5 -27 -1.5
    endloop
  endfacet
  facet normal 0 0 -1
    outer loop
      vertex -42 25.5 -1.5
      vertex 45 -33.2 -1.5
      vertex -42.4635 25.5734 -1.5
    endloop
  endfacet
  facet normal 0 0 -1
    outer loop
      vertex -40.7865 -26.1183 -1.5
      vertex -45 33.2 -1.5
      vertex -40.5734 -26.5365 -1.5
    endloop
  endfacet
  facet normal 0 0 -1
    outer loop
      vertex -41.1183 -25.7865 -1.5
      vertex -45 33.2 -1.5
      vertex -40.7865 -26.1183 -1.5
    endloop
  endfacet
  facet normal 0 0 -1
    outer loop
      vertex -41.5365 -25.5734 -1.5
      vertex -45 33.2 -1.5
      vertex -41.1183 -25.7865 -1.5
    endloop
  endfacet
  facet normal 0 0 -1
    outer loop
      vertex -42 -25.5 -1.5
      vertex -45 33.2 -1.5
      vertex -41.5365 -25.5734 -1.5
    endloop
  endfacet
  facet normal 0 0 -1
    outer loop
      vertex -42.4635 -25.5734 -1.5
      vertex -45 33.2 -1.5
      vertex -42 -25.5 -1.5
    endloop
  endfacet
  facet normal 0 0 -1
    outer loop
      vertex -42.8817 -25.7865 -1.5
      vertex -45 33.2 -1.5
      vertex -42.4635 -25.5734 -1.5
    endloop
  endfacet
  facet normal 0 0 -1
    outer loop
      vertex -43.2135 -26.1183 -1.5
      vertex -45 33.2 -1.5
      vertex -42.8817 -25.7865 -1.5
    endloop
  endfacet
  facet normal 0 0 -1
    outer loop
      vertex -43.4266 -26.5365 -1.5
      vertex -45 33.2 -1.5
      vertex -43.2135 -26.1183 -1.5
    endloop
  endfacet
  facet normal 0 0 -1
    outer loop
      vertex -43.5 -27 -1.5
      vertex -45 33.2 -1.5
      vertex -43.4266 -26.5365 -1.5
    endloop
  endfacet
  facet normal 0 0 -1
    outer loop
      vertex -40.5 -27 -1.5
      vertex -45 33.2 -1.5
      vertex -43.5 27 -1.5
    endloop
  endfacet
  facet normal 0 0 -1
    outer loop
      vertex -40.5 -27 -1.5
      vertex -43.5 27 -1.5
      vertex -43.4266 26.5365 -1.5
    endloop
  endfacet
  facet normal 0 0 -1
    outer loop
      vertex -40.5 -27 -1.5
      vertex -43.4266 26.5365 -1.5
      vertex -43.2135 26.1183 -1.5
    endloop
  endfacet
  facet normal 0 0 -1
    outer loop
      vertex -40.5 -27 -1.5
      vertex -43.2135 26.1183 -1.5
      vertex -42.8817 25.7865 -1.5
    endloop
  endfacet
  facet normal 0 0 -1
    outer loop
      vertex -40.5 -27 -1.5
      vertex -42.8817 25.7865 -1.5
      vertex 45 -33.2 -1.5
    endloop
  endfacet
  facet normal 0 0 -1
    outer loop
      vertex -42.8817 25.7865 -1.5
      vertex -42.4635 25.5734 -1.5
      vertex 45 -33.2 -1.5
    endloop
  endfacet
  facet normal 0 0 -1
    outer loop
      vertex -41.5365 25.5734 -1.5
      vertex 45 -33.2 -1.5
      vertex -42 25.5 -1.5
    endloop
  endfacet
  facet normal 0 0 -1
    outer loop
      vertex -41.1183 25.7865 -1.5
      vertex 45 -33.2 -1.5
      vertex -41.5365 25.5734 -1.5
    endloop
  endfacet
  facet normal 0 0 -1
    outer loop
      vertex 41.5365 -28.4266 -1.5
      vertex 45 -33.2 -1.5
      vertex 41.1183 -28.2135 -1.5
    endloop
  endfacet
  facet normal 0 0 -1
    outer loop
      vertex -41.5365 28.4266 -1.5
      vertex -45 33.2 -1.5
      vertex -41.1183 28.2135 -1.5
    endloop
  endfacet
  facet normal 0 0 -1
    outer loop
      vertex -42.8817 28.2135 -1.5
      vertex -45 33.2 -1.5
      vertex -42.4635 28.4266 -1.5
    endloop
  endfacet
  facet normal 0 0 -1
    outer loop
      vertex -41.1183 25.7865 -1.5
      vertex -40.7865 26.1183 -1.5
      vertex 45 -33.2 -1.5
    endloop
  endfacet
  facet normal 0 0 -1
    outer loop
      vertex -42.4635 28.4266 -1.5
      vertex -45 33.2 -1.5
      vertex -42 28.5 -1.5
    endloop
  endfacet
  facet normal 0 0 -1
    outer loop
      vertex -40.7865 26.1183 -1.5
      vertex -40.5734 26.5365 -1.5
      vertex 45 -33.2 -1.5
    endloop
  endfacet
  facet normal 0 0 -1
    outer loop
      vertex -42 28.5 -1.5
      vertex -45 33.2 -1.5
      vertex -41.5365 28.4266 -1.5
    endloop
  endfacet
  facet normal 0 0 -1
    outer loop
      vertex -40.5734 26.5365 -1.5
      vertex -40.5 27 -1.5
      vertex 45 -33.2 -1.5
    endloop
  endfacet
  facet normal 0 0 -1
    outer loop
      vertex -40.5 27 -1.5
      vertex -40.5734 27.4635 -1.5
      vertex 45 -33.2 -1.5
    endloop
  endfacet
  facet normal 0 0 -1
    outer loop
      vertex -41.1183 28.2135 -1.5
      vertex -45 33.2 -1.5
      vertex -40.7865 27.8817 -1.5
    endloop
  endfacet
  facet normal 0 0 -1
    outer loop
      vertex -40.5734 27.4635 -1.5
      vertex -40.7865 27.8817 -1.5
      vertex 45 -33.2 -1.5
    endloop
  endfacet
  facet normal 0 0 -1
    outer loop
      vertex -43.2135 27.8817 -1.5
      vertex -45 33.2 -1.5
      vertex -42.8817 28.2135 -1.5
    endloop
  endfacet
  facet normal 0 0 -1
    outer loop
      vertex -43.4266 27.4635 -1.5
      vertex -45 33.2 -1.5
      vertex -43.2135 27.8817 -1.5
    endloop
  endfacet
  facet normal 0 0 -1
    outer loop
      vertex -43.5 27 -1.5
      vertex -45 33.2 -1.5
      vertex -43.4266 27.4635 -1.5
    endloop
  endfacet
  facet normal 0 0 -1
    outer loop
      vertex 40.5734 -27.4635 -1.5
      vertex -45 33.2 -1.5
      vertex 40.5 -27 -1.5
    endloop
  endfacet
  facet normal 0 0 -1
    outer loop
      vertex 40.5734 -26.5365 -1.5
      vertex 40.5 -27 -1.5
      vertex 45 33.2 -1.5
    endloop
  endfacet
  facet normal 0 0 -1
    outer loop
      vertex 40.7865 -27.8817 -1.5
      vertex -45 33.2 -1.5
      vertex 40.5734 -27.4635 -1.5
    endloop
  endfacet
  facet normal 0 0 -1
    outer loop
      vertex 45 -33.2 -1.5
      vertex -45 33.2 -1.5
      vertex 40.7865 -27.8817 -1.5
    endloop
  endfacet
  facet normal 0 0 -1
    outer loop
      vertex 45 -33.2 -1.5
      vertex 40.7865 -27.8817 -1.5
      vertex 41.1183 -28.2135 -1.5
    endloop
  endfacet
  facet normal 0 0 -1
    outer loop
      vertex 43.4266 -26.5365 -1.5
      vertex 45 33.2 -1.5
      vertex 43.5 -27 -1.5
    endloop
  endfacet
  facet normal 0 0 -1
    outer loop
      vertex 45 -33.2 -1.5
      vertex 41.5365 -28.4266 -1.5
      vertex 42 -28.5 -1.5
    endloop
  endfacet
  facet normal 0 0 -1
    outer loop
      vertex 45 -33.2 -1.5
      vertex 42 -28.5 -1.5
      vertex 42.4635 -28.4266 -1.5
    endloop
  endfacet
  facet normal 0 0 -1
    outer loop
      vertex 45 -33.2 -1.5
      vertex 42.4635 -28.4266 -1.5
      vertex 42.8817 -28.2135 -1.5
    endloop
  endfacet
  facet normal 0 0 -1
    outer loop
      vertex 45 -33.2 -1.5
      vertex 42.8817 -28.2135 -1.5
      vertex 43.2135 -27.8817 -1.5
    endloop
  endfacet
  facet normal 0 0 -1
    outer loop
      vertex 45 -33.2 -1.5
      vertex 43.2135 -27.8817 -1.5
      vertex 43.4266 -27.4635 -1.5
    endloop
  endfacet
  facet normal 0 0 -1
    outer loop
      vertex 45 -33.2 -1.5
      vertex 43.4266 -27.4635 -1.5
      vertex 43.5 -27 -1.5
    endloop
  endfacet
  facet normal 0 0 -1
    outer loop
      vertex 45 -33.2 -1.5
      vertex 43.5 -27 -1.5
      vertex 45 33.2 -1.5
    endloop
  endfacet
  facet normal 0 0 -1
    outer loop
      vertex 43.2135 -26.1183 -1.5
      vertex 45 33.2 -1.5
      vertex 43.4266 -26.5365 -1.5
    endloop
  endfacet
  facet normal 0 0 -1
    outer loop
      vertex 42.8817 -25.7865 -1.5
      vertex 45 33.2 -1.5
      vertex 43.2135 -26.1183 -1.5
    endloop
  endfacet
  facet normal 0 0 -1
    outer loop
      vertex 42.4635 -25.5734 -1.5
      vertex 45 33.2 -1.5
      vertex 42.8817 -25.7865 -1.5
    endloop
  endfacet
  facet normal 0 0 -1
    outer loop
      vertex 42 -25.5 -1.5
      vertex 45 33.2 -1.5
      vertex 42.4635 -25.5734 -1.5
    endloop
  endfacet
  facet normal 0 0 -1
    outer loop
      vertex 41.5365 -25.5734 -1.5
      vertex 45 33.2 -1.5
      vertex 42 -25.5 -1.5
    endloop
  endfacet
  facet normal 0 0 -1
    outer loop
      vertex 43.4266 27.4635 -1.5
      vertex 45 33.2 -1.5
      vertex 43.5 27 -1.5
    endloop
  endfacet
  facet normal 0 0 -1
    outer loop
      vertex 41.5365 -25.5734 -1.5
      vertex 41.1183 -25.7865 -1.5
      vertex 45 33.2 -1.5
    endloop
  endfacet
  facet normal 0 0 -1
    outer loop
      vertex 41.1183 -25.7865 -1.5
      vertex 40.7865 -26.1183 -1.5
      vertex 45 33.2 -1.5
    endloop
  endfacet
  facet normal 0 0 -1
    outer loop
      vertex 40.7865 -26.1183 -1.5
      vertex 40.5734 -26.5365 -1.5
      vertex 45 33.2 -1.5
    endloop
  endfacet
  facet normal 0 0 -1
    outer loop
      vertex 40.5 -27 -1.5
      vertex -45 33.2 -1.5
      vertex 40.5 27 -1.5
    endloop
  endfacet
  facet normal 0 0 -1
    outer loop
      vertex 40.5 -27 -1.5
      vertex 40.5 27 -1.5
      vertex 40.5734 26.5365 -1.5
    endloop
  endfacet
  facet normal 0 0 -1
    outer loop
      vertex 40.5 -27 -1.5
      vertex 40.5734 26.5365 -1.5
      vertex 40.7865 26.1183 -1.5
    endloop
  endfacet
  facet normal 0 0 -1
    outer loop
      vertex 40.5 -27 -1.5
      vertex 40.7865 26.1183 -1.5
      vertex 41.1183 25.7865 -1.5
    endloop
  endfacet
  facet normal 0 0 -1
    outer loop
      vertex 40.5 -27 -1.5
      vertex 41.1183 25.7865 -1.5
      vertex 41.5365 25.5734 -1.5
    endloop
  endfacet
  facet normal 0 0 -1
    outer loop
      vertex 40.5 -27 -1.5
      vertex 41.5365 25.5734 -1.5
      vertex 42 25.5 -1.5
    endloop
  endfacet
  facet normal 0 0 -1
    outer loop
      vertex 40.5 -27 -1.5
      vertex 42 25.5 -1.5
      vertex 42.4635 25.5734 -1.5
    endloop
  endfacet
  facet normal 0 0 -1
    outer loop
      vertex 40.5 -27 -1.5
      vertex 42.4635 25.5734 -1.5
      vertex 42.8817 25.7865 -1.5
    endloop
  endfacet
  facet normal 0 0 -1
    outer loop
      vertex 40.5 -27 -1.5
      vertex 42.8817 25.7865 -1.5
      vertex 43.2135 26.1183 -1.5
    endloop
  endfacet
  facet normal 0 0 -1
    outer loop
      vertex 40.5 -27 -1.5
      vertex 43.2135 26.1183 -1.5
      vertex 43.4266 26.5365 -1.5
    endloop
  endfacet
  facet normal 0 0 -1
    outer loop
      vertex 40.5 -27 -1.5
      vertex 43.4266 26.5365 -1.5
      vertex 45 33.2 -1.5
    endloop
  endfacet
  facet normal 0 0 -1
    outer loop
      vertex 43.4266 26.5365 -1.5
      vertex 43.5 27 -1.5
      vertex 45 33.2 -1.5
    endloop
  endfacet
  facet normal 0 0 -1
    outer loop
      vertex 43.2135 27.8817 -1.5
      vertex 45 33.2 -1.5
      vertex 43.4266 27.4635 -1.5
    endloop
  endfacet
  facet normal 0 0 -1
    outer loop
      vertex 42.8817 28.2135 -1.5
      vertex 45 33.2 -1.5
      vertex 43.2135 27.8817 -1.5
    endloop
  endfacet
  facet normal 0 0 -1
    outer loop
      vertex 42.4635 28.4266 -1.5
      vertex 45 33.2 -1.5
      vertex 42.8817 28.2135 -1.5
    endloop
  endfacet
  facet normal 0 0 -1
    outer loop
      vertex 42 28.5 -1.5
      vertex 45 33.2 -1.5
      vertex 42.4635 28.4266 -1.5
    endloop
  endfacet
  facet normal 0 0 -1
    outer loop
      vertex 41.5365 28.4266 -1.5
      vertex 45 33.2 -1.5
      vertex 42 28.5 -1.5
    endloop
  endfacet
  facet normal 0 0 -1
    outer loop
      vertex 41.1183 28.2135 -1.5
      vertex 45 33.2 -1.5
      vertex 41.5365 28.4266 -1.5
    endloop
  endfacet
  facet normal 0 0 -1
    outer loop
      vertex 40.7865 27.8817 -1.5
      vertex -45 33.2 -1.5
      vertex 41.1183 28.2135 -1.5
    endloop
  endfacet
  facet normal 0 0 -1
    outer loop
      vertex 40.5734 27.4635 -1.5
      vertex -45 33.2 -1.5
      vertex 40.7865 27.8817 -1.5
    endloop
  endfacet
  facet normal 0 0 -1
    outer loop
      vertex 40.5 27 -1.5
      vertex -45 33.2 -1.5
      vertex 40.5734 27.4635 -1.5
    endloop
  endfacet
  facet normal 0 0 -1
    outer loop
      vertex -41.5365 -28.4266 -1.5
      vertex 45 -33.2 -1.5
      vertex -42 -28.5 -1.5
    endloop
  endfacet
  facet normal 0 1 0
    outer loop
      vertex -45 33.2 -1.5
      vertex -45 33.2 17.5
      vertex 45 33.2 -1.5
    endloop
  endfacet
  facet normal 0 1 0
    outer loop
      vertex 45 33.2 -1.5
      vertex -45 33.2 17.5
      vertex 45 33.2 17.5
    endloop
  endfacet
  facet normal 0 0 1
    outer loop
      vertex -45 33.2 17.5
      vertex -45 30.2 17.5
      vertex 45 30.2 17.5
    endloop
  endfacet
  facet normal 0 0 1
    outer loop
      vertex 45 33.2 17.5
      vertex -45 33.2 17.5
      vertex 45 30.2 17.5
    endloop
  endfacet
  facet normal 0 -1 0
    outer loop
      vertex -45 30.2 17.5
      vertex -45 30.2 1.5
      vertex 45 30.2 1.5
    endloop
  endfacet
  facet normal 0 -1 0
    outer loop
      vertex 45 30.2 17.5
      vertex -45 30.2 17.5
      vertex 45 30.2 1.5
    endloop
  endfacet
  facet normal 0 0 1
    outer loop
      vertex -41.1183 -28.2135 1.5
      vertex -45 -30.2 1.5
      vertex 45 -30.2 1.5
    endloop
  endfacet
  facet normal 0 0 1
    outer loop
      vertex 43.5 -27 1.5
      vertex 43.4266 -27.4635 1.5
      vertex 45 -30.2 1.5
    endloop
  endfacet
  facet normal 0 0 1
    outer loop
      vertex -41.5365 -28.4266 1.5
      vertex -42 -28.5 1.5
      vertex -45 -30.2 1.5
    endloop
  endfacet
  facet normal 0 0 1
    outer loop
      vertex -43.5 -27 1.5
      vertex -45 -30.2 1.5
      vertex -43.4266 -27.4635 1.5
    endloop
  endfacet
  facet normal 0 0 1
    outer loop
      vertex -41.5365 -25.5734 1.5
      vertex -41.1183 -25.7865 1.5
      vertex 45 -30.2 1.5
    endloop
  endfacet
  facet normal 0 0 1
    outer loop
      vertex -45 30.2 1.5
      vertex -45 -30.2 1.5
      vertex -43.5 -27 1.5
    endloop
  endfacet
  facet normal 0 0 1
    outer loop
      vertex -40.5734 -27.4635 1.5
      vertex -40.7865 -27.8817 1.5
      vertex 45 -30.2 1.5
    endloop
  endfacet
  facet normal 0 0 1
    outer loop
      vertex -40.5734 -26.5365 1.5
      vertex -40.5 -27 1.5
      vertex 45 -30.2 1.5
    endloop
  endfacet
  facet normal 0 0 1
    outer loop
      vertex -45 30.2 1.5
      vertex -43.4266 -26.5365 1.5
      vertex -43.2135 -26.1183 1.5
    endloop
  endfacet
  facet normal 0 0 1
    outer loop
      vertex -40.7865 -26.1183 1.5
      vertex -40.5734 -26.5365 1.5
      vertex 45 -30.2 1.5
    endloop
  endfacet
  facet normal 0 0 1
    outer loop
      vertex -45 30.2 1.5
      vertex -43.2135 -26.1183 1.5
      vertex -42.8817 -25.7865 1.5
    endloop
  endfacet
  facet normal 0 0 1
    outer loop
      vertex -41.1183 -25.7865 1.5
      vertex -40.7865 -26.1183 1.5
      vertex 45 -30.2 1.5
    endloop
  endfacet
  facet normal 0 0 1
    outer loop
      vertex -45 30.2 1.5
      vertex -42.8817 -25.7865 1.5
      vertex -42.4635 -25.5734 1.5
    endloop
  endfacet
  facet normal 0 0 1
    outer loop
      vertex 42 -28.5 1.5
      vertex -42 -25.5 1.5
      vertex 45 -30.2 1.5
    endloop
  endfacet
  facet normal 0 0 1
    outer loop
      vertex -45 30.2 1.5
      vertex -42.4635 -25.5734 1.5
      vertex -42 -25.5 1.5
    endloop
  endfacet
  facet normal 0 0 1
    outer loop
      vertex -42 -25.5 1.5
      vertex -41.5365 -25.5734 1.5
      vertex 45 -30.2 1.5
    endloop
  endfacet
  facet normal 0 0 1
    outer loop
      vertex -40.5 -27 1.5
      vertex -40.5734 -27.4635 1.5
      vertex 45 -30.2 1.5
    endloop
  endfacet
  facet normal 0 0 1
    outer loop
      vertex -40.7865 -27.8817 1.5
      vertex -41.1183 -28.2135 1.5
      vertex 45 -30.2 1.5
    endloop
  endfacet
  facet normal 0 0 1
    outer loop
      vertex -41.5365 -28.4266 1.5
      vertex -45 -30.2 1.5
      vertex -41.1183 -28.2135 1.5
    endloop
  endfacet
  facet normal 0 0 1
    outer loop
      vertex -42.4635 -28.4266 1.5
      vertex -45 -30.2 1.5
      vertex -42 -28.5 1.5
    endloop
  endfacet
  facet normal 0 0 1
    outer loop
      vertex -42.8817 -28.2135 1.5
      vertex -45 -30.2 1.5
      vertex -42.4635 -28.4266 1.5
    endloop
  endfacet
  facet normal 0 0 1
    outer loop
      vertex -43.2135 -27.8817 1.5
      vertex -45 -30.2 1.5
      vertex -42.8817 -28.2135 1.5
    endloop
  endfacet
  facet normal 0 0 1
    outer loop
      vertex -43.4266 -27.4635 1.5
      vertex -45 -30.2 1.5
      vertex -43.2135 -27.8817 1.5
    endloop
  endfacet
  facet normal 0 0 1
    outer loop
      vertex -45 30.2 1.5
      vertex -42 -25.5 1.5
      vertex -43.4266 26.5365 1.5
    endloop
  endfacet
  facet normal 0 0 1
    outer loop
      vertex -45 30.2 1.5
      vertex -43.4266 26.5365 1.5
      vertex -43.5 27 1.5
    endloop
  endfacet
  facet normal 0 0 1
    outer loop
      vertex -45 30.2 1.5
      vertex -43.5 27 1.5
      vertex -43.4266 27.4635 1.5
    endloop
  endfacet
  facet normal 0 0 1
    outer loop
      vertex -45 30.2 1.5
      vertex -43.4266 27.4635 1.5
      vertex -43.2135 27.8817 1.5
    endloop
  endfacet
  facet normal 0 0 1
    outer loop
      vertex -45 30.2 1.5
      vertex -43.2135 27.8817 1.5
      vertex -42.8817 28.2135 1.5
    endloop
  endfacet
  facet normal 0 0 1
    outer loop
      vertex 40.5734 -27.4635 1.5
      vertex -41.5365 25.5734 1.5
      vertex -42 25.5 1.5
    endloop
  endfacet
  facet normal 0 0 1
    outer loop
      vertex -45 30.2 1.5
      vertex -42.8817 28.2135 1.5
      vertex -42.4635 28.4266 1.5
    endloop
  endfacet
  facet normal 0 0 1
    outer loop
      vertex 45 30.2 1.5
      vertex -45 30.2 1.5
      vertex -42 28.5 1.5
    endloop
  endfacet
  facet normal 0 0 1
    outer loop
      vertex 45 30.2 1.5
      vertex -42 28.5 1.5
      vertex -41.5365 28.4266 1.5
    endloop
  endfacet
  facet normal 0 0 1
    outer loop
      vertex 43.4266 -26.5365 1.5
      vertex 43.5 -27 1.5
      vertex 45 -30.2 1.5
    endloop
  endfacet
  facet normal 0 0 1
    outer loop
      vertex 45 30.2 1.5
      vertex -41.5365 28.4266 1.5
      vertex -41.1183 28.2135 1.5
    endloop
  endfacet
  facet normal 0 0 1
    outer loop
      vertex 41.5365 28.4266 1.5
      vertex 42 28.5 1.5
      vertex 45 30.2 1.5
    endloop
  endfacet
  facet normal 0 0 1
    outer loop
      vertex -42.4635 25.5734 1.5
      vertex -42 -25.5 1.5
      vertex -42 25.5 1.5
    endloop
  endfacet
  facet normal 0 0 1
    outer loop
      vertex -42.8817 25.7865 1.5
      vertex -42 -25.5 1.5
      vertex -42.4635 25.5734 1.5
    endloop
  endfacet
  facet normal 0 0 1
    outer loop
      vertex -43.2135 26.1183 1.5
      vertex -42 -25.5 1.5
      vertex -42.8817 25.7865 1.5
    endloop
  endfacet
  facet normal 0 0 1
    outer loop
      vertex -43.4266 26.5365 1.5
      vertex -42 -25.5 1.5
      vertex -43.2135 26.1183 1.5
    endloop
  endfacet
  facet normal 0 0 1
    outer loop
      vertex -42 25.5 1.5
      vertex -42 -25.5 1.5
      vertex 40.5734 -27.4635 1.5
    endloop
  endfacet
  facet normal 0 0 1
    outer loop
      vertex 42.4635 -28.4266 1.5
      vertex 42 -28.5 1.5
      vertex 45 -30.2 1.5
    endloop
  endfacet
  facet normal 0 0 1
    outer loop
      vertex 40.5734 26.5365 1.5
      vertex -41.1183 28.2135 1.5
      vertex 40.5 -27 1.5
    endloop
  endfacet
  facet normal 0 0 1
    outer loop
      vertex 42.4635 28.4266 1.5
      vertex 42.8817 28.2135 1.5
      vertex 45 30.2 1.5
    endloop
  endfacet
  facet normal 0 0 1
    outer loop
      vertex 45 30.2 1.5
      vertex 40.5 -27 1.5
      vertex 40.5734 -26.5365 1.5
    endloop
  endfacet
  facet normal 0 0 1
    outer loop
      vertex 45 30.2 1.5
      vertex 40.5734 -26.5365 1.5
      vertex 40.7865 -26.1183 1.5
    endloop
  endfacet
  facet normal 0 0 1
    outer loop
      vertex 42.8817 -28.2135 1.5
      vertex 42.4635 -28.4266 1.5
      vertex 45 -30.2 1.5
    endloop
  endfacet
  facet normal 0 0 1
    outer loop
      vertex 45 30.2 1.5
      vertex 40.7865 -26.1183 1.5
      vertex 41.1183 -25.7865 1.5
    endloop
  endfacet
  facet normal 0 0 1
    outer loop
      vertex 45 30.2 1.5
      vertex 41.1183 -25.7865 1.5
      vertex 41.5365 -25.5734 1.5
    endloop
  endfacet
  facet normal 0 0 1
    outer loop
      vertex 43.2135 -27.8817 1.5
      vertex 42.8817 -28.2135 1.5
      vertex 45 -30.2 1.5
    endloop
  endfacet
  facet normal 0 0 1
    outer loop
      vertex 45 30.2 1.5
      vertex 41.5365 -25.5734 1.5
      vertex 42 -25.5 1.5
    endloop
  endfacet
  facet normal 0 0 1
    outer loop
      vertex 45 30.2 1.5
      vertex 42 -25.5 1.5
      vertex 42.4635 -25.5734 1.5
    endloop
  endfacet
  facet normal 0 0 1
    outer loop
      vertex 43.4266 -27.4635 1.5
      vertex 43.2135 -27.8817 1.5
      vertex 45 -30.2 1.5
    endloop
  endfacet
  facet normal 0 0 1
    outer loop
      vertex 45 30.2 1.5
      vertex 42.4635 -25.5734 1.5
      vertex 42.8817 -25.7865 1.5
    endloop
  endfacet
  facet normal 0 0 1
    outer loop
      vertex 45 30.2 1.5
      vertex 42.8817 -25.7865 1.5
      vertex 43.2135 -26.1183 1.5
    endloop
  endfacet
  facet normal 0 0 1
    outer loop
      vertex 45 30.2 1.5
      vertex 43.4266 -26.5365 1.5
      vertex 45 -30.2 1.5
    endloop
  endfacet
  facet normal 0 0 1
    outer loop
      vertex 45 30.2 1.5
      vertex 43.2135 -26.1183 1.5
      vertex 43.4266 -26.5365 1.5
    endloop
  endfacet
  facet normal 0 0 1
    outer loop
      vertex 41.5365 -28.4266 1.5
      vertex -42 -25.5 1.5
      vertex 42 -28.5 1.5
    endloop
  endfacet
  facet normal 0 0 1
    outer loop
      vertex 41.1183 -28.2135 1.5
      vertex -42 -25.5 1.5
      vertex 41.5365 -28.4266 1.5
    endloop
  endfacet
  facet normal 0 0 1
    outer loop
      vertex 40.7865 -27.8817 1.5
      vertex -42 -25.5 1.5
      vertex 41.1183 -28.2135 1.5
    endloop
  endfacet
  facet normal 0 0 1
    outer loop
      vertex 40.5734 -27.4635 1.5
      vertex -42 -25.5 1.5
      vertex 40.7865 -27.8817 1.5
    endloop
  endfacet
  facet normal 0 0 1
    outer loop
      vertex 40.7865 26.1183 1.5
      vertex 40.5734 26.5365 1.5
      vertex 40.5 -27 1.5
    endloop
  endfacet
  facet normal 0 0 1
    outer loop
      vertex 40.5 27 1.5
      vertex -41.1183 28.2135 1.5
      vertex 40.5734 26.5365 1.5
    endloop
  endfacet
  facet normal 0 0 1
    outer loop
      vertex 43.4266 26.5365 1.5
      vertex 43.2135 26.1183 1.5
      vertex 40.5 -27 1.5
    endloop
  endfacet
  facet normal 0 0 1
    outer loop
      vertex 40.5734 27.4635 1.5
      vertex -41.1183 28.2135 1.5
      vertex 40.5 27 1.5
    endloop
  endfacet
  facet normal 0 0 1
    outer loop
      vertex 40.7865 27.8817 1.5
      vertex -41.1183 28.2135 1.5
      vertex 40.5734 27.4635 1.5
    endloop
  endfacet
  facet normal 0 0 1
    outer loop
      vertex 41.1183 28.2135 1.5
      vertex -41.1183 28.2135 1.5
      vertex 40.7865 27.8817 1.5
    endloop
  endfacet
  facet normal 0 0 1
    outer loop
      vertex 45 30.2 1.5
      vertex -41.1183 28.2135 1.5
      vertex 41.1183 28.2135 1.5
    endloop
  endfacet
  facet normal 0 0 1
    outer loop
      vertex 42 28.5 1.5
      vertex 42.4635 28.4266 1.5
      vertex 45 30.2 1.5
    endloop
  endfacet
  facet normal 0 0 1
    outer loop
      vertex 45 30.2 1.5
      vertex 41.1183 28.2135 1.5
      vertex 41.5365 28.4266 1.5
    endloop
  endfacet
  facet normal 0 0 1
    outer loop
      vertex 42.8817 25.7865 1.5
      vertex 42.4635 25.5734 1.5
      vertex 40.5 -27 1.5
    endloop
  endfacet
  facet normal 0 0 1
    outer loop
      vertex 45 30.2 1.5
      vertex 42.8817 28.2135 1.5
      vertex 43.2135 27.8817 1.5
    endloop
  endfacet
  facet normal 0 0 1
    outer loop
      vertex 43.2135 26.1183 1.5
      vertex 42.8817 25.7865 1.5
      vertex 40.5 -27 1.5
    endloop
  endfacet
  facet normal 0 0 1
    outer loop
      vertex 45 30.2 1.5
      vertex 43.2135 27.8817 1.5
      vertex 43.4266 27.4635 1.5
    endloop
  endfacet
  facet normal 0 0 1
    outer loop
      vertex 45 30.2 1.5
      vertex 43.5 27 1.5
      vertex 40.5 -27 1.5
    endloop
  endfacet
  facet normal 0 0 1
    outer loop
      vertex 45 30.2 1.5
      vertex 43.4266 27.4635 1.5
      vertex 43.5 27 1.5
    endloop
  endfacet
  facet normal 0 0 1
    outer loop
      vertex 43.5 27 1.5
      vertex 43.4266 26.5365 1.5
      vertex 40.5 -27 1.5
    endloop
  endfacet
  facet normal 0 0 1
    outer loop
      vertex 42.4635 25.5734 1.5
      vertex 42 25.5 1.5
      vertex 40.5 -27 1.5
    endloop
  endfacet
  facet normal 0 0 1
    outer loop
      vertex 42 25.5 1.5
      vertex 41.5365 25.5734 1.5
      vertex 40.5 -27 1.5
    endloop
  endfacet
  facet normal 0 0 1
    outer loop
      vertex 41.5365 25.5734 1.5
      vertex 41.1183 25.7865 1.5
      vertex 40.5 -27 1.5
    endloop
  endfacet
  facet normal 0 0 1
    outer loop
      vertex 41.1183 25.7865 1.5
      vertex 40.7865 26.1183 1.5
      vertex 40.5 -27 1.5
    endloop
  endfacet
  facet normal 0 0 1
    outer loop
      vertex -43.5 -27 1.5
      vertex -43.4266 -26.5365 1.5
      vertex -45 30.2 1.5
    endloop
  endfacet
  facet normal 0 0 1
    outer loop
      vertex -42.4635 28.4266 1.5
      vertex -42 28.5 1.5
      vertex -45 30.2 1.5
    endloop
  endfacet
  facet normal 0 0 1
    outer loop
      vertex 40.5734 -27.4635 1.5
      vertex -41.1183 25.7865 1.5
      vertex -41.5365 25.5734 1.5
    endloop
  endfacet
  facet normal 0 0 1
    outer loop
      vertex 40.5734 -27.4635 1.5
      vertex -40.7865 26.1183 1.5
      vertex -41.1183 25.7865 1.5
    endloop
  endfacet
  facet normal 0 0 1
    outer loop
      vertex 40.5734 -27.4635 1.5
      vertex -40.5734 26.5365 1.5
      vertex -40.7865 26.1183 1.5
    endloop
  endfacet
  facet normal 0 0 1
    outer loop
      vertex 40.5734 -27.4635 1.5
      vertex -40.5 27 1.5
      vertex -40.5734 26.5365 1.5
    endloop
  endfacet
  facet normal 0 0 1
    outer loop
      vertex 40.5734 -27.4635 1.5
      vertex -40.5734 27.4635 1.5
      vertex -40.5 27 1.5
    endloop
  endfacet
  facet normal 0 0 1
    outer loop
      vertex 40.5734 -27.4635 1.5
      vertex -40.7865 27.8817 1.5
      vertex -40.5734 27.4635 1.5
    endloop
  endfacet
  facet normal 0 0 1
    outer loop
      vertex 40.5734 -27.4635 1.5
      vertex -41.1183 28.2135 1.5
      vertex -40.7865 27.8817 1.5
    endloop
  endfacet
  facet normal 0 0 1
    outer loop
      vertex 40.5734 -27.4635 1.5
      vertex 40.5 -27 1.5
      vertex -41.1183 28.2135 1.5
    endloop
  endfacet
  facet normal 0 1 0
    outer loop
      vertex -45 -30.2 1.5
      vertex -45 -30.2 17.5
      vertex 45 -30.2 1.5
    endloop
  endfacet
  facet normal 0 1 0
    outer loop
      vertex 45 -30.2 1.5
      vertex -45 -30.2 17.5
      vertex 45 -30.2 17.5
    endloop
  endfacet
  facet normal 0 0 1
    outer loop
      vertex -45 -30.2 17.5
      vertex -45 -33.2 17.5
      vertex 45 -33.2 17.5
    endloop
  endfacet
  facet normal 0 0 1
    outer loop
      vertex 45 -30.2 17.5
      vertex -45 -30.2 17.5
      vertex 45 -33.2 17.5
    endloop
  endfacet
  facet normal 1 0 0
    outer loop
      vertex 45 -30.2 1.5
      vertex 45 -33.2 -1.5
      vertex 45 33.2 -1.5
    endloop
  endfacet
  facet normal 1 0 0
    outer loop
      vertex 45 -30.2 1.5
      vertex 45 -30.2 17.5
      vertex 45 -33.2 17.5
    endloop
  endfacet
  facet normal 1 0 0
    outer loop
      vertex 45 33.2 17.5
      vertex 45 30.2 17.5
      vertex 45 33.2 -1.5
    endloop
  endfacet
  facet normal 1 0 0
    outer loop
      vertex 45 30.2 17.5
      vertex 45 30.2 1.5
      vertex 45 33.2 -1.5
    endloop
  endfacet
  facet normal 1 0 0
    outer loop
      vertex 45 -33.2 17.5
      vertex 45 -33.2 -1.5
      vertex 45 -30.2 1.5
    endloop
  endfacet
  facet normal 1 0 0
    outer loop
      vertex 45 30.2 1.5
      vertex 45 -30.2 1.5
      vertex 45 33.2 -1.5
    endloop
  endfacet
  facet normal 0.987688 -0.156434 0
    outer loop
      vertex -43.4266 -26.5365 -1.5
      vertex -43.4266 -26.5365 1.5
      vertex -43.5 -27 1.5
    endloop
  endfacet
  facet normal 0.987688 -0.156434 0
    outer loop
      vertex -43.5 -27 -1.5
      vertex -43.4266 -26.5365 -1.5
      vertex -43.5 -27 1.5
    endloop
  endfacet
  facet normal 0.987688 0.156434 0
    outer loop
      vertex -43.5 -27 1.5
      vertex -43.4266 -27.4635 1.5
      vertex -43.4266 -27.4635 -1.5
    endloop
  endfacet
  facet normal 0.987688 0.156434 0
    outer loop
      vertex -43.5 -27 -1.5
      vertex -43.5 -27 1.5
      vertex -43.4266 -27.4635 -1.5
    endloop
  endfacet
  facet normal 0.891006 -0.453991 0
    outer loop
      vertex -43.2135 -26.1183 -1.5
      vertex -43.2135 -26.1183 1.5
      vertex -43.4266 -26.5365 1.5
    endloop
  endfacet
  facet normal 0.891006 -0.453991 0
    outer loop
      vertex -43.4266 -26.5365 -1.5
      vertex -43.2135 -26.1183 -1.5
      vertex -43.4266 -26.5365 1.5
    endloop
  endfacet
  facet normal 0.707107 -0.707107 0
    outer loop
      vertex -42.8817 -25.7865 -1.5
      vertex -42.8817 -25.7865 1.5
      vertex -43.2135 -26.1183 1.5
    endloop
  endfacet
  facet normal 0.707107 -0.707107 0
    outer loop
      vertex -43.2135 -26.1183 -1.5
      vertex -42.8817 -25.7865 -1.5
      vertex -43.2135 -26.1183 1.5
    endloop
  endfacet
  facet normal 0.453991 -0.891006 0
    outer loop
      vertex -42.4635 -25.5734 -1.5
      vertex -42.4635 -25.5734 1.5
      vertex -42.8817 -25.7865 1.5
    endloop
  endfacet
  facet normal 0.453991 -0.891006 0
    outer loop
      vertex -42.8817 -25.7865 -1.5
      vertex -42.4635 -25.5734 -1.5
      vertex -42.8817 -25.7865 1.5
    endloop
  endfacet
  facet normal 0.156434 -0.987688 0
    outer loop
      vertex -42 -25.5 -1.5
      vertex -42 -25.5 1.5
      vertex -42.4635 -25.5734 1.5
    endloop
  endfacet
  facet normal 0.156434 -0.987688 0
    outer loop
      vertex -42.4635 -25.5734 -1.5
      vertex -42 -25.5 -1.5
      vertex -42.4635 -25.5734 1.5
    endloop
  endfacet
  facet normal -0.156434 -0.987688 0
    outer loop
      vertex -41.5365 -25.5734 -1.5
      vertex -41.5365 -25.5734 1.5
      vertex -42 -25.5 1.5
    endloop
  endfacet
  facet normal -0.156434 -0.987688 0
    outer loop
      vertex -42 -25.5 -1.5
      vertex -41.5365 -25.5734 -1.5
      vertex -42 -25.5 1.5
    endloop
  endfacet
  facet normal -0.453991 -0.891006 0
    outer loop
      vertex -41.1183 -25.7865 -1.5
      vertex -41.1183 -25.7865 1.5
      vertex -41.5365 -25.5734 1.5
    endloop
  endfacet
  facet normal -0.453991 -0.891006 0
    outer loop
      vertex -41.5365 -25.5734 -1.5
      vertex -41.1183 -25.7865 -1.5
      vertex -41.5365 -25.5734 1.5
    endloop
  endfacet
  facet normal -0.707107 -0.707107 0
    outer loop
      vertex -40.7865 -26.1183 -1.5
      vertex -40.7865 -26.1183 1.5
      vertex -41.1183 -25.7865 1.5
    endloop
  endfacet
  facet normal -0.707107 -0.707107 0
    outer loop
      vertex -41.1183 -25.7865 -1.5
      vertex -40.7865 -26.1183 -1.5
      vertex -41.1183 -25.7865 1.5
    endloop
  endfacet
  facet normal -0.891006 -0.453991 0
    outer loop
      vertex -40.5734 -26.5365 1.5
      vertex -40.7865 -26.1183 1.5
      vertex -40.5734 -26.5365 -1.5
    endloop
  endfacet
  facet normal -0.891006 -0.453991 0
    outer loop
      vertex -40.5734 -26.5365 -1.5
      vertex -40.7865 -26.1183 1.5
      vertex -40.7865 -26.1183 -1.5
    endloop
  endfacet
  facet normal -0.987688 -0.156434 0
    outer loop
      vertex -40.5 -27 1.5
      vertex -40.5734 -26.5365 1.5
      vertex -40.5 -27 -1.5
    endloop
  endfacet
  facet normal -0.987688 -0.156434 0
    outer loop
      vertex -40.5 -27 -1.5
      vertex -40.5734 -26.5365 1.5
      vertex -40.5734 -26.5365 -1.5
    endloop
  endfacet
  facet normal -0.987688 0.156434 0
    outer loop
      vertex -40.5 -27 1.5
      vertex -40.5 -27 -1.5
      vertex -40.5734 -27.4635 1.5
    endloop
  endfacet
  facet normal -0.987688 0.156434 0
    outer loop
      vertex -40.5734 -27.4635 1.5
      vertex -40.5 -27 -1.5
      vertex -40.5734 -27.4635 -1.5
    endloop
  endfacet
  facet normal -0.891006 0.453991 0
    outer loop
      vertex -40.5734 -27.4635 1.5
      vertex -40.5734 -27.4635 -1.5
      vertex -40.7865 -27.8817 1.5
    endloop
  endfacet
  facet normal -0.891006 0.453991 0
    outer loop
      vertex -40.7865 -27.8817 1.5
      vertex -40.5734 -27.4635 -1.5
      vertex -40.7865 -27.8817 -1.5
    endloop
  endfacet
  facet normal -0.707107 0.707107 0
    outer loop
      vertex -40.7865 -27.8817 1.5
      vertex -40.7865 -27.8817 -1.5
      vertex -41.1183 -28.2135 1.5
    endloop
  endfacet
  facet normal -0.707107 0.707107 0
    outer loop
      vertex -41.1183 -28.2135 1.5
      vertex -40.7865 -27.8817 -1.5
      vertex -41.1183 -28.2135 -1.5
    endloop
  endfacet
  facet normal -0.453991 0.891006 0
    outer loop
      vertex -41.1183 -28.2135 1.5
      vertex -41.1183 -28.2135 -1.5
      vertex -41.5365 -28.4266 1.5
    endloop
  endfacet
  facet normal -0.453991 0.891006 0
    outer loop
      vertex -41.5365 -28.4266 1.5
      vertex -41.1183 -28.2135 -1.5
      vertex -41.5365 -28.4266 -1.5
    endloop
  endfacet
  facet normal -0.156434 0.987688 0
    outer loop
      vertex -41.5365 -28.4266 1.5
      vertex -41.5365 -28.4266 -1.5
      vertex -42 -28.5 1.5
    endloop
  endfacet
  facet normal -0.156434 0.987688 0
    outer loop
      vertex -42 -28.5 1.5
      vertex -41.5365 -28.4266 -1.5
      vertex -42 -28.5 -1.5
    endloop
  endfacet
  facet normal 0.156434 0.987688 0
    outer loop
      vertex -42 -28.5 1.5
      vertex -42 -28.5 -1.5
      vertex -42.4635 -28.4266 1.5
    endloop
  endfacet
  facet normal 0.156434 0.987688 0
    outer loop
      vertex -42.4635 -28.4266 1.5
      vertex -42 -28.5 -1.5
      vertex -42.4635 -28.4266 -1.5
    endloop
  endfacet
  facet normal 0.453991 0.891006 0
    outer loop
      vertex -42.4635 -28.4266 1.5
      vertex -42.4635 -28.4266 -1.5
      vertex -42.8817 -28.2135 1.5
    endloop
  endfacet
  facet normal 0.453991 0.891006 0
    outer loop
      vertex -42.8817 -28.2135 1.5
      vertex -42.4635 -28.4266 -1.5
      vertex -42.8817 -28.2135 -1.5
    endloop
  endfacet
  facet normal 0.707107 0.707107 0
    outer loop
      vertex -42.8817 -28.2135 1.5
      vertex -42.8817 -28.2135 -1.5
      vertex -43.2135 -27.8817 1.5
    endloop
  endfacet
  facet normal 0.707107 0.707107 0
    outer loop
      vertex -43.2135 -27.8817 1.5
      vertex -42.8817 -28.2135 -1.5
      vertex -43.2135 -27.8817 -1.5
    endloop
  endfacet
  facet normal 0.891006 0.453991 0
    outer loop
      vertex -43.4266 -27.4635 1.5
      vertex -43.2135 -27.8817 1.5
      vertex -43.2135 -27.8817 -1.5
    endloop
  endfacet
  facet normal 0.891006 0.453991 0
    outer loop
      vertex -43.4266 -27.4635 -1.5
      vertex -43.4266 -27.4635 1.5
      vertex -43.2135 -27.8817 -1.5
    endloop
  endfacet
  facet normal 0.987688 -0.156434 0
    outer loop
      vertex -43.4266 27.4635 -1.5
      vertex -43.4266 27.4635 1.5
      vertex -43.5 27 1.5
    endloop
  endfacet
  facet normal 0.987688 -0.156434 0
    outer loop
      vertex -43.5 27 -1.5
      vertex -43.4266 27.4635 -1.5
      vertex -43.5 27 1.5
    endloop
  endfacet
  facet normal 0.987688 0.156434 0
    outer loop
      vertex -43.5 27 1.5
      vertex -43.4266 26.5365 1.5
      vertex -43.4266 26.5365 -1.5
    endloop
  endfacet
  facet normal 0.987688 0.156434 0
    outer loop
      vertex -43.5 27 -1.5
      vertex -43.5 27 1.5
      vertex -43.4266 26.5365 -1.5
    endloop
  endfacet
  facet normal 0.891006 -0.453991 0
    outer loop
      vertex -43.2135 27.8817 -1.5
      vertex -43.2135 27.8817 1.5
      vertex -43.4266 27.4635 1.5
    endloop
  endfacet
  facet normal 0.891006 -0.453991 0
    outer loop
      vertex -43.4266 27.4635 -1.5
      vertex -43.2135 27.8817 -1.5
      vertex -43.4266 27.4635 1.5
    endloop
  endfacet
  facet normal 0.707107 -0.707107 0
    outer loop
      vertex -42.8817 28.2135 -1.5
      vertex -42.8817 28.2135 1.5
      vertex -43.2135 27.8817 1.5
    endloop
  endfacet
  facet normal 0.707107 -0.707107 0
    outer loop
      vertex -43.2135 27.8817 -1.5
      vertex -42.8817 28.2135 -1.5
      vertex -43.2135 27.8817 1.5
    endloop
  endfacet
  facet normal 0.453991 -0.891006 0
    outer loop
      vertex -42.4635 28.4266 -1.5
      vertex -42.4635 28.4266 1.5
      vertex -42.8817 28.2135 1.5
    endloop
  endfacet
  facet normal 0.453991 -0.891006 0
    outer loop
      vertex -42.8817 28.2135 -1.5
      vertex -42.4635 28.4266 -1.5
      vertex -42.8817 28.2135 1.5
    endloop
  endfacet
  facet normal 0.156434 -0.987688 0
    outer loop
      vertex -42 28.5 -1.5
      vertex -42 28.5 1.5
      vertex -42.4635 28.4266 1.5
    endloop
  endfacet
  facet normal 0.156434 -0.987688 0
    outer loop
      vertex -42.4635 28.4266 -1.5
      vertex -42 28.5 -1.5
      vertex -42.4635 28.4266 1.5
    endloop
  endfacet
  facet normal -0.156434 -0.987688 0
    outer loop
      vertex -41.5365 28.4266 -1.5
      vertex -41.5365 28.4266 1.5
      vertex -42 28.5 1.5
    endloop
  endfacet
  facet normal -0.156434 -0.987688 0
    outer loop
      vertex -42 28.5 -1.5
      vertex -41.5365 28.4266 -1.5
      vertex -42 28.5 1.5
    endloop
  endfacet
  facet normal -0.453991 -0.891006 0
    outer loop
      vertex -41.1183 28.2135 -1.5
      vertex -41.1183 28.2135 1.5
      vertex -41.5365 28.4266 1.5
    endloop
  endfacet
  facet normal -0.453991 -0.891006 0
    outer loop
      vertex -41.5365 28.4266 -1.5
      vertex -41.1183 28.2135 -1.5
      vertex -41.5365 28.4266 1.5
    endloop
  endfacet
  facet normal -0.707107 -0.707107 0
    outer loop
      vertex -40.7865 27.8817 -1.5
      vertex -40.7865 27.8817 1.5
      vertex -41.1183 28.2135 1.5
    endloop
  endfacet
  facet normal -0.707107 -0.707107 0
    outer loop
      vertex -41.1183 28.2135 -1.5
      vertex -40.7865 27.8817 -1.5
      vertex -41.1183 28.2135 1.5
    endloop
  endfacet
  facet normal -0.891006 -0.453991 0
    outer loop
      vertex -40.5734 27.4635 1.5
      vertex -40.7865 27.8817 1.5
      vertex -40.5734 27.4635 -1.5
    endloop
  endfacet
  facet normal -0.891006 -0.453991 0
    outer loop
      vertex -40.5734 27.4635 -1.5
      vertex -40.7865 27.8817 1.5
      vertex -40.7865 27.8817 -1.5
    endloop
  endfacet
  facet normal -0.987688 -0.156434 0
    outer loop
      vertex -40.5 27 1.5
      vertex -40.5734 27.4635 1.5
      vertex -40.5 27 -1.5
    endloop
  endfacet
  facet normal -0.987688 -0.156434 0
    outer loop
      vertex -40.5 27 -1.5
      vertex -40.5734 27.4635 1.5
      vertex -40.5734 27.4635 -1.5
    endloop
  endfacet
  facet normal -0.987688 0.156434 0
    outer loop
      vertex -40.5 27 1.5
      vertex -40.5 27 -1.5
      vertex -40.5734 26.5365 1.5
    endloop
  endfacet
  facet normal -0.987688 0.156434 0
    outer loop
      vertex -40.5734 26.5365 1.5
      vertex -40.5 27 -1.5
      vertex -40.5734 26.5365 -1.5
    endloop
  endfacet
  facet normal -0.891006 0.453991 0
    outer loop
      vertex -40.5734 26.5365 1.5
      vertex -40.5734 26.5365 -1.5
      vertex -40.7865 26.1183 1.5
    endloop
  endfacet
  facet normal -0.891006 0.453991 0
    outer loop
      vertex -40.7865 26.1183 1.5
      vertex -40.5734 26.5365 -1.5
      vertex -40.7865 26.1183 -1.5
    endloop
  endfacet
  facet normal -0.707107 0.707107 0
    outer loop
      vertex -40.7865 26.1183 1.5
      vertex -40.7865 26.1183 -1.5
      vertex -41.1183 25.7865 1.5
    endloop
  endfacet
  facet normal -0.707107 0.707107 0
    outer loop
      vertex -41.1183 25.7865 1.5
      vertex -40.7865 26.1183 -1.5
      vertex -41.1183 25.7865 -1.5
    endloop
  endfacet
  facet normal -0.453991 0.891006 0
    outer loop
      vertex -41.1183 25.7865 1.5
      vertex -41.1183 25.7865 -1.5
      vertex -41.5365 25.5734 1.5
    endloop
  endfacet
  facet normal -0.453991 0.891006 0
    outer loop
      vertex -41.5365 25.5734 1.5
      vertex -41.1183 25.7865 -1.5
      vertex -41.5365 25.5734 -1.5
    endloop
  endfacet
  facet normal -0.156434 0.987688 0
    outer loop
      vertex -41.5365 25.5734 1.5
      vertex -41.5365 25.5734 -1.5
      vertex -42 25.5 1.5
    endloop
  endfacet
  facet normal -0.156434 0.987688 0
    outer loop
      vertex -42 25.5 1.5
      vertex -41.5365 25.5734 -1.5
      vertex -42 25.5 -1.5
    endloop
  endfacet
  facet normal 0.156434 0.987688 0
    outer loop
      vertex -42 25.5 1.5
      vertex -42 25.5 -1.5
      vertex -42.4635 25.5734 1.5
    endloop
  endfacet
  facet normal 0.156434 0.987688 0
    outer loop
      vertex -42.4635 25.5734 1.5
      vertex -42 25.5 -1.5
      vertex -42.4635 25.5734 -1.5
    endloop
  endfacet
  facet normal 0.453991 0.891006 0
    outer loop
      vertex -42.4635 25.5734 1.5
      vertex -42.4635 25.5734 -1.5
      vertex -42.8817 25.7865 1.5
    endloop
  endfacet
  facet normal 0.453991 0.891006 0
    outer loop
      vertex -42.8817 25.7865 1.5
      vertex -42.4635 25.5734 -1.5
      vertex -42.8817 25.7865 -1.5
    endloop
  endfacet
  facet normal 0.707107 0.707107 0
    outer loop
      vertex -42.8817 25.7865 1.5
      vertex -42.8817 25.7865 -1.5
      vertex -43.2135 26.1183 1.5
    endloop
  endfacet
  facet normal 0.707107 0.707107 0
    outer loop
      vertex -43.2135 26.1183 1.5
      vertex -42.8817 25.7865 -1.5
      vertex -43.2135 26.1183 -1.5
    endloop
  endfacet
  facet normal 0.891006 0.453991 0
    outer loop
      vertex -43.4266 26.5365 1.5
      vertex -43.2135 26.1183 1.5
      vertex -43.2135 26.1183 -1.5
    endloop
  endfacet
  facet normal 0.891006 0.453991 0
    outer loop
      vertex -43.4266 26.5365 -1.5
      vertex -43.4266 26.5365 1.5
      vertex -43.2135 26.1183 -1.5
    endloop
  endfacet
  facet normal 0.987688 -0.156434 0
    outer loop
      vertex 40.5734 -26.5365 -1.5
      vertex 40.5734 -26.5365 1.5
      vertex 40.5 -27 1.5
    endloop
  endfacet
  facet normal 0.987688 -0.156434 0
    outer loop
      vertex 40.5 -27 -1.5
      vertex 40.5734 -26.5365 -1.5
      vertex 40.5 -27 1.5
    endloop
  endfacet
  facet normal 0.987688 0.156434 0
    outer loop
      vertex 40.5 -27 1.5
      vertex 40.5734 -27.4635 1.5
      vertex 40.5734 -27.4635 -1.5
    endloop
  endfacet
  facet normal 0.987688 0.156434 0
    outer loop
      vertex 40.5 -27 -1.5
      vertex 40.5 -27 1.5
      vertex 40.5734 -27.4635 -1.5
    endloop
  endfacet
  facet normal 0.891006 -0.453991 0
    outer loop
      vertex 40.7865 -26.1183 -1.5
      vertex 40.7865 -26.1183 1.5
      vertex 40.5734 -26.5365 1.5
    endloop
  endfacet
  facet normal 0.891006 -0.453991 0
    outer loop
      vertex 40.5734 -26.5365 -1.5
      vertex 40.7865 -26.1183 -1.5
      vertex 40.5734 -26.5365 1.5
    endloop
  endfacet
  facet normal 0.707107 -0.707107 0
    outer loop
      vertex 41.1183 -25.7865 -1.5
      vertex 41.1183 -25.7865 1.5
      vertex 40.7865 -26.1183 1.5
    endloop
  endfacet
  facet normal 0.707107 -0.707107 0
    outer loop
      vertex 40.7865 -26.1183 -1.5
      vertex 41.1183 -25.7865 -1.5
      vertex 40.7865 -26.1183 1.5
    endloop
  endfacet
  facet normal 0.453991 -0.891006 0
    outer loop
      vertex 41.5365 -25.5734 -1.5
      vertex 41.5365 -25.5734 1.5
      vertex 41.1183 -25.7865 1.5
    endloop
  endfacet
  facet normal 0.453991 -0.891006 0
    outer loop
      vertex 41.1183 -25.7865 -1.5
      vertex 41.5365 -25.5734 -1.5
      vertex 41.1183 -25.7865 1.5
    endloop
  endfacet
  facet normal 0.156434 -0.987688 0
    outer loop
      vertex 42 -25.5 -1.5
      vertex 42 -25.5 1.5
      vertex 41.5365 -25.5734 1.5
    endloop
  endfacet
  facet normal 0.156434 -0.987688 0
    outer loop
      vertex 41.5365 -25.5734 -1.5
      vertex 42 -25.5 -1.5
      vertex 41.5365 -25.5734 1.5
    endloop
  endfacet
  facet normal -0.156434 -0.987688 0
    outer loop
      vertex 42.4635 -25.5734 -1.5
      vertex 42.4635 -25.5734 1.5
      vertex 42 -25.5 1.5
    endloop
  endfacet
  facet normal -0.156434 -0.987688 0
    outer loop
      vertex 42 -25.5 -1.5
      vertex 42.4635 -25.5734 -1.5
      vertex 42 -25.5 1.5
    endloop
  endfacet
  facet normal -0.453991 -0.891006 0
    outer loop
      vertex 42.8817 -25.7865 -1.5
      vertex 42.8817 -25.7865 1.5
      vertex 42.4635 -25.5734 1.5
    endloop
  endfacet
  facet normal -0.453991 -0.891006 0
    outer loop
      vertex 42.4635 -25.5734 -1.5
      vertex 42.8817 -25.7865 -1.5
      vertex 42.4635 -25.5734 1.5
    endloop
  endfacet
  facet normal -0.707107 -0.707107 0
    outer loop
      vertex 43.2135 -26.1183 -1.5
      vertex 43.2135 -26.1183 1.5
      vertex 42.8817 -25.7865 1.5
    endloop
  endfacet
  facet normal -0.707107 -0.707107 0
    outer loop
      vertex 42.8817 -25.7865 -1.5
      vertex 43.2135 -26.1183 -1.5
      vertex 42.8817 -25.7865 1.5
    endloop
  endfacet
  facet normal -0.891006 -0.453991 0
    outer loop
      vertex 43.4266 -26.5365 1.5
      vertex 43.2135 -26.1183 1.5
      vertex 43.4266 -26.5365 -1.5
    endloop
  endfacet
  facet normal -0.891006 -0.453991 0
    outer loop
      vertex 43.4266 -26.5365 -1.5
      vertex 43.2135 -26.1183 1.5
      vertex 43.2135 -26.1183 -1.5
    endloop
  endfacet
  facet normal -0.987688 -0.156434 0
    outer loop
      vertex 43.5 -27 1.5
      vertex 43.4266 -26.5365 1.5
      vertex 43.5 -27 -1.5
    endloop
  endfacet
  facet normal -0.987688 -0.156434 0
    outer loop
      vertex 43.5 -27 -1.5
      vertex 43.4266 -26.5365 1.5
      vertex 43.4266 -26.5365 -1.5
    endloop
  endfacet
  facet normal -0.987688 0.156434 0
    outer loop
      vertex 43.5 -27 1.5
      vertex 43.5 -27 -1.5
      vertex 43.4266 -27.4635 1.5
    endloop
  endfacet
  facet normal -0.987688 0.156434 0
    outer loop
      vertex 43.4266 -27.4635 1.5
      vertex 43.5 -27 -1.5
      vertex 43.4266 -27.4635 -1.5
    endloop
  endfacet
  facet normal -0.891006 0.453991 0
    outer loop
      vertex 43.4266 -27.4635 1.5
      vertex 43.4266 -27.4635 -1.5
      vertex 43.2135 -27.8817 1.5
    endloop
  endfacet
  facet normal -0.891006 0.453991 0
    outer loop
      vertex 43.2135 -27.8817 1.5
      vertex 43.4266 -27.4635 -1.5
      vertex 43.2135 -27.8817 -1.5
    endloop
  endfacet
  facet normal -0.707107 0.707107 0
    outer loop
      vertex 43.2135 -27.8817 1.5
      vertex 43.2135 -27.8817 -1.5
      vertex 42.8817 -28.2135 1.5
    endloop
  endfacet
  facet normal -0.707107 0.707107 0
    outer loop
      vertex 42.8817 -28.2135 1.5
      vertex 43.2135 -27.8817 -1.5
      vertex 42.8817 -28.2135 -1.5
    endloop
  endfacet
  facet normal -0.453991 0.891006 0
    outer loop
      vertex 42.8817 -28.2135 1.5
      vertex 42.8817 -28.2135 -1.5
      vertex 42.4635 -28.4266 1.5
    endloop
  endfacet
  facet normal -0.453991 0.891006 0
    outer loop
      vertex 42.4635 -28.4266 1.5
      vertex 42.8817 -28.2135 -1.5
      vertex 42.4635 -28.4266 -1.5
    endloop
  endfacet
  facet normal -0.156434 0.987688 0
    outer loop
      vertex 42.4635 -28.4266 1.5
      vertex 42.4635 -28.4266 -1.5
      vertex 42 -28.5 1.5
    endloop
  endfacet
  facet normal -0.156434 0.987688 0
    outer loop
      vertex 42 -28.5 1.5
      vertex 42.4635 -28.4266 -1.5
      vertex 42 -28.5 -1.5
    endloop
  endfacet
  facet normal 0.156434 0.987688 0
    outer loop
      vertex 42 -28.5 1.5
      vertex 42 -28.5 -1.5
      vertex 41.5365 -28.4266 1.5
    endloop
  endfacet
  facet normal 0.156434 0.987688 0
    outer loop
      vertex 41.5365 -28.4266 1.5
      vertex 42 -28.5 -1.5
      vertex 41.5365 -28.4266 -1.5
    endloop
  endfacet
  facet normal 0.453991 0.891006 0
    outer loop
      vertex 41.5365 -28.4266 1.5
      vertex 41.5365 -28.4266 -1.5
      vertex 41.1183 -28.2135 1.5
    endloop
  endfacet
  facet normal 0.453991 0.891006 0
    outer loop
      vertex 41.1183 -28.2135 1.5
      vertex 41.5365 -28.4266 -1.5
      vertex 41.1183 -28.2135 -1.5
    endloop
  endfacet
  facet normal 0.707107 0.707107 0
    outer loop
      vertex 41.1183 -28.2135 1.5
      vertex 41.1183 -28.2135 -1.5
      vertex 40.7865 -27.8817 1.5
    endloop
  endfacet
  facet normal 0.707107 0.707107 0
    outer loop
      vertex 40.7865 -27.8817 1.5
      vertex 41.1183 -28.2135 -1.5
      vertex 40.7865 -27.8817 -1.5
    endloop
  endfacet
  facet normal 0.891006 0.453991 0
    outer loop
      vertex 40.5734 -27.4635 1.5
      vertex 40.7865 -27.8817 1.5
      vertex 40.7865 -27.8817 -1.5
    endloop
  endfacet
  facet normal 0.891006 0.453991 0
    outer loop
      vertex 40.5734 -27.4635 -1.5
      vertex 40.5734 -27.4635 1.5
      vertex 40.7865 -27.8817 -1.5
    endloop
  endfacet
  facet normal 0.987688 -0.156434 0
    outer loop
      vertex 40.5734 27.4635 -1.5
      vertex 40.5734 27.4635 1.5
      vertex 40.5 27 1.5
    endloop
  endfacet
  facet normal 0.987688 -0.156434 0
    outer loop
      vertex 40.5 27 -1.5
      vertex 40.5734 27.4635 -1.5
      vertex 40.5 27 1.5
    endloop
  endfacet
  facet normal 0.987688 0.156434 0
    outer loop
      vertex 40.5 27 1.5
      vertex 40.5734 26.5365 1.5
      vertex 40.5734 26.5365 -1.5
    endloop
  endfacet
  facet normal 0.987688 0.156434 0
    outer loop
      vertex 40.5 27 -1.5
      vertex 40.5 27 1.5
      vertex 40.5734 26.5365 -1.5
    endloop
  endfacet
  facet normal 0.891006 -0.453991 0
    outer loop
      vertex 40.7865 27.8817 -1.5
      vertex 40.7865 27.8817 1.5
      vertex 40.5734 27.4635 1.5
    endloop
  endfacet
  facet normal 0.891006 -0.453991 0
    outer loop
      vertex 40.5734 27.4635 -1.5
      vertex 40.7865 27.8817 -1.5
      vertex 40.5734 27.4635 1.5
    endloop
  endfacet
  facet normal 0.707107 -0.707107 0
    outer loop
      vertex 41.1183 28.2135 -1.5
      vertex 41.1183 28.2135 1.5
      vertex 40.7865 27.8817 1.5
    endloop
  endfacet
  facet normal 0.707107 -0.707107 0
    outer loop
      vertex 40.7865 27.8817 -1.5
      vertex 41.1183 28.2135 -1.5
      vertex 40.7865 27.8817 1.5
    endloop
  endfacet
  facet normal 0.453991 -0.891006 0
    outer loop
      vertex 41.5365 28.4266 -1.5
      vertex 41.5365 28.4266 1.5
      vertex 41.1183 28.2135 1.5
    endloop
  endfacet
  facet normal 0.453991 -0.891006 0
    outer loop
      vertex 41.1183 28.2135 -1.5
      vertex 41.5365 28.4266 -1.5
      vertex 41.1183 28.2135 1.5
    endloop
  endfacet
  facet normal 0.156434 -0.987688 0
    outer loop
      vertex 42 28.5 -1.5
      vertex 42 28.5 1.5
      vertex 41.5365 28.4266 1.5
    endloop
  endfacet
  facet normal 0.156434 -0.987688 0
    outer loop
      vertex 41.5365 28.4266 -1.5
      vertex 42 28.5 -1.5
      vertex 41.5365 28.4266 1.5
    endloop
  endfacet
  facet normal -0.156434 -0.987688 0
    outer loop
      vertex 42.4635 28.4266 -1.5
      vertex 42.4635 28.4266 1.5
      vertex 42 28.5 1.5
    endloop
  endfacet
  facet normal -0.156434 -0.987688 0
    outer loop
      vertex 42 28.5 -1.5
      vertex 42.4635 28.4266 -1.5
      vertex 42 28.5 1.5
    endloop
  endfacet
  facet normal -0.453991 -0.891006 0
    outer loop
      vertex 42.8817 28.2135 -1.5
      vertex 42.8817 28.2135 1.5
      vertex 42.4635 28.4266 1.5
    endloop
  endfacet
  facet normal -0.453991 -0.891006 0
    outer loop
      vertex 42.4635 28.4266 -1.5
      vertex 42.8817 28.2135 -1.5
      vertex 42.4635 28.4266 1.5
    endloop
  endfacet
  facet normal -0.707107 -0.707107 0
    outer loop
      vertex 43.2135 27.8817 -1.5
      vertex 43.2135 27.8817 1.5
      vertex 42.8817 28.2135 1.5
    endloop
  endfacet
  facet normal -0.707107 -0.707107 0
    outer loop
      vertex 42.8817 28.2135 -1.5
      vertex 43.2135 27.8817 -1.5
      vertex 42.8817 28.2135 1.5
    endloop
  endfacet
  facet normal -0.891006 -0.453991 0
    outer loop
      vertex 43.4266 27.4635 1.5
      vertex 43.2135 27.8817 1.5
      vertex 43.4266 27.4635 -1.5
    endloop
  endfacet
  facet normal -0.891006 -0.453991 0
    outer loop
      vertex 43.4266 27.4635 -1.5
      vertex 43.2135 27.8817 1.5
      vertex 43.2135 27.8817 -1.5
    endloop
  endfacet
  facet normal -0.987688 -0.156434 0
    outer loop
      vertex 43.5 27 1.5
      vertex 43.4266 27.4635 1.5
      vertex 43.5 27 -1.5
    endloop
  endfacet
  facet normal -0.987688 -0.156434 0
    outer loop
      vertex 43.5 27 -1.5
      vertex 43.4266 27.4635 1.5
      vertex 43.4266 27.4635 -1.5
    endloop
  endfacet
  facet normal -0.987688 0.156434 0
    outer loop
      vertex 43.5 27 1.5
      vertex 43.5 27 -1.5
      vertex 43.4266 26.5365 1.5
    endloop
  endfacet
  facet normal -0.987688 0.156434 0
    outer loop
      vertex 43.4266 26.5365 1.5
      vertex 43.5 27 -1.5
      vertex 43.4266 26.5365 -1.5
    endloop
  endfacet
  facet normal -0.891006 0.453991 0
    outer loop
      vertex 43.4266 26.5365 1.5
      vertex 43.4266 26.5365 -1.5
      vertex 43.2135 26.1183 1.5
    endloop
  endfacet
  facet normal -0.891006 0.453991 0
    outer loop
      vertex 43.2135 26.1183 1.5
      vertex 43.4266 26.5365 -1.5
      vertex 43.2135 26.1183 -1.5
    endloop
  endfacet
  facet normal -0.707107 0.707107 0
    outer loop
      vertex 43.2135 26.1183 1.5
      vertex 43.2135 26.1183 -1.5
      vertex 42.8817 25.7865 1.5
    endloop
  endfacet
  facet normal -0.707107 0.707107 0
    outer loop
      vertex 42.8817 25.7865 1.5
      vertex 43.2135 26.1183 -1.5
      vertex 42.8817 25.7865 -1.5
    endloop
  endfacet
  facet normal -0.453991 0.891006 0
    outer loop
      vertex 42.8817 25.7865 1.5
      vertex 42.8817 25.7865 -1.5
      vertex 42.4635 25.5734 1.5
    endloop
  endfacet
  facet normal -0.453991 0.891006 0
    outer loop
      vertex 42.4635 25.5734 1.5
      vertex 42.8817 25.7865 -1.5
      vertex 42.4635 25.5734 -1.5
    endloop
  endfacet
  facet normal -0.156434 0.987688 0
    outer loop
      vertex 42.4635 25.5734 1.5
      vertex 42.4635 25.5734 -1.5
      vertex 42 25.5 1.5
    endloop
  endfacet
  facet normal -0.156434 0.987688 0
    outer loop
      vertex 42 25.5 1.5
      vertex 42.4635 25.5734 -1.5
      vertex 42 25.5 -1.5
    endloop
  endfacet
  facet normal 0.156434 0.987688 0
    outer loop
      vertex 42 25.5 1.5
      vertex 42 25.5 -1.5
      vertex 41.5365 25.5734 1.5
    endloop
  endfacet
  facet normal 0.156434 0.987688 0
    outer loop
      vertex 41.5365 25.5734 1.5
      vertex 42 25.5 -1.5
      vertex 41.5365 25.5734 -1.5
    endloop
  endfacet
  facet normal 0.453991 0.891006 0
    outer loop
      vertex 41.5365 25.5734 1.5
      vertex 41.5365 25.5734 -1.5
      vertex 41.1183 25.7865 1.5
    endloop
  endfacet
  facet normal 0.453991 0.891006 0
    outer loop
      vertex 41.1183 25.7865 1.5
      vertex 41.5365 25.5734 -1.5
      vertex 41.1183 25.7865 -1.5
    endloop
  endfacet
  facet normal 0.707107 0.707107 0
    outer loop
      vertex 41.1183 25.7865 1.5
      vertex 41.1183 25.7865 -1.5
      vertex 40.7865 26.1183 1.5
    endloop
  endfacet
  facet normal 0.707107 0.707107 0
    outer loop
      vertex 40.7865 26.1183 1.5
      vertex 41.1183 25.7865 -1.5
      vertex 40.7865 26.1183 -1.5
    endloop
  endfacet
  facet normal 0.891006 0.453991 0
    outer loop
      vertex 40.5734 26.5365 1.5
      vertex 40.7865 26.1183 1.5
      vertex 40.7865 26.1183 -1.5
    endloop
  endfacet
  facet normal 0.891006 0.453991 0
    outer loop
      vertex 40.5734 26.5365 -1.5
      vertex 40.5734 26.5365 1.5
      vertex 40.7865 26.1183 -1.5
    endloop
  endfacet
endsolid OpenSCAD_Model
